<?xml version="1.0" encoding="utf-8"?>
<!-- Generator: Adobe Illustrator 21.1.0, SVG Export Plug-In . SVG Version: 6.00 Build 0)  -->
<svg version="1.1" id="Layer_1" xmlns="http://www.w3.org/2000/svg" xmlns:xlink="http://www.w3.org/1999/xlink" x="0px" y="0px"
	 viewBox="0 0 182.5 75" style="enable-background:new 0 0 182.5 75;" xml:space="preserve">
<style type="text/css">
	.Arched_x0020_Green{fill:url(#SVGID_1_);stroke:#FFFFFF;stroke-width:0.25;stroke-miterlimit:1;}
	.st0{fill:#1B75BC;}
	.st1{fill:#FFFFFF;}
	.st2{fill:none;}
	.st3{clip-path:url(#SVGID_3_);fill:#1B75BC;}
	.st4{clip-path:url(#SVGID_3_);fill:none;}
	.st5{clip-path:url(#SVGID_3_);fill:#FFFFFF;}
	.st6{clip-path:url(#SVGID_5_);fill:#1B75BC;}
	.st7{clip-path:url(#SVGID_5_);}
	.st8{fill:none;stroke:#000000;stroke-width:1.01;stroke-linecap:round;stroke-linejoin:round;stroke-miterlimit:10;}
	.st9{fill:#1B72BA;}
	.st10{clip-path:url(#SVGID_7_);fill:#1B75BC;}
	.st11{clip-path:url(#SVGID_7_);}
	.st12{fill:#1C74BB;}
	.st13{fill:#FFF200;stroke:#FFFFFF;stroke-width:2.02;stroke-miterlimit:10;}
	.st14{clip-path:url(#SVGID_9_);fill:#1B75BC;}
	.st15{clip-path:url(#SVGID_9_);}
	.st16{fill:#1D75BC;}
	.st17{clip-path:url(#SVGID_11_);fill:#1B75BC;}
	.st18{clip-path:url(#SVGID_11_);}
</style>
<linearGradient id="SVGID_1_" gradientUnits="userSpaceOnUse" x1="-167" y1="314.5" x2="-166.2929" y2="313.7929">
	<stop  offset="0" style="stop-color:#20AC4B"/>
	<stop  offset="0.9831" style="stop-color:#19361A"/>
</linearGradient>
<path class="st0" d="M16,49.4H5.9c0.4,1.9,1.7,2.8,3.5,2.8c1.4,0,2.4-0.4,3.5-1.5l2.4,2.1c-1.4,1.7-3.3,2.7-5.9,2.7
	c-4.4,0-7.6-3.1-7.6-7.5V48c0-4.1,2.9-7.5,7.2-7.5c4.8,0,7.1,3.8,7.1,7.9v0.1C16,48.8,16,49.1,16,49.4z M9,43.8
	c-1.7,0-2.8,1.2-3.1,3.1H12C11.8,45,10.7,43.8,9,43.8z"/>
<path class="st0" d="M26.9,55.3v-8.1c0-1.9-0.9-2.9-2.5-2.9c-1.6,0-2.6,1-2.6,2.9v8.1h-4.1V40.8h4.1v2.1c0.9-1.2,2.2-2.3,4.2-2.3
	c3.1,0,4.9,2.1,4.9,5.4v9.4H26.9z"/>
<path class="st0" d="M46.7,49.4H36.6c0.4,1.9,1.7,2.8,3.5,2.8c1.4,0,2.4-0.4,3.5-1.5l2.4,2.1c-1.4,1.7-3.3,2.7-5.9,2.7
	c-4.4,0-7.6-3.1-7.6-7.5V48c0-4.1,2.9-7.5,7.2-7.5c4.8,0,7.1,3.8,7.1,7.9v0.1C46.7,48.8,46.7,49.1,46.7,49.4z M39.7,43.8
	c-1.7,0-2.8,1.2-3.1,3.1h6.2C42.5,45,41.4,43.8,39.7,43.8z"/>
<path class="st0" d="M57,44.8c-2.7,0-4.4,1.6-4.4,5.1v5.4h-4.1V40.8h4.1v2.9c0.8-2,2.2-3.3,4.6-3.2v4.3H57z"/>
<path class="st0" d="M64.6,59.6c-2.4,0-4.6-0.5-6.4-1.5l1.4-3.1c1.5,0.8,3,1.3,4.9,1.3c2.8,0,4.1-1.4,4.1-3.9v-0.7
	c-1.2,1.5-2.5,2.4-4.7,2.4c-3.4,0-6.4-2.5-6.4-6.8v-0.1c0-4.3,3.1-6.8,6.4-6.8c2.2,0,3.6,0.9,4.7,2.2v-1.9h4.1V52
	C72.7,57.4,70,59.6,64.6,59.6z M68.7,47.2c0-2-1.5-3.4-3.5-3.4c-2,0-3.5,1.4-3.5,3.4v0.1c0,2,1.5,3.4,3.5,3.4
	C67.1,50.7,68.7,49.3,68.7,47.2L68.7,47.2z"/>
<path class="st0" d="M83.3,55.6c-1.1,2.9-2.3,4.1-4.8,4.1c-1.5,0-2.6-0.4-3.7-1l1.4-3c0.5,0.3,1.2,0.6,1.8,0.6
	c0.7,0,1.1-0.2,1.4-0.9l-5.7-14.6h4.4l3.3,9.9l3.2-9.9h4.3L83.3,55.6z"/>
<path class="st1" d="M102.1,55.3V53c-0.9,1.3-2.7,2.6-5.3,2.6c-2.6,0-5.3-1.5-5.3-4.3v-0.1c0-2.9,2.5-4.5,6-4.5
	c1.9,0,3.2,0.2,4.6,0.6v-0.6c0-2.8-1.7-4.2-4.5-4.2c-1.7,0-3.1,0.5-4.3,1.1l-0.5-1.2c1.5-0.7,3-1.2,4.9-1.2c3.5,0,5.8,1.8,5.8,5.4
	v8.6H102.1z M102.1,48.5c-1.2-0.3-2.7-0.6-4.7-0.6c-2.9,0-4.5,1.3-4.5,3.2v0.1c0,2,1.9,3.2,4,3.2c2.8,0,5.2-1.7,5.2-4.2V48.5z"/>
<path class="st1" d="M107,55.3V35.5h1.3v19.7H107z"/>
<path class="st1" d="M112.4,55.3V35.5h1.3v19.7H112.4z"/>
<path class="st1" d="M117.6,37.9V36h1.6v1.8H117.6z M117.8,55.3V41.5h1.3v13.8H117.8z"/>
<path class="st1" d="M132.4,55.3V53c-0.9,1.3-2.7,2.6-5.3,2.6c-2.6,0-5.3-1.5-5.3-4.3v-0.1c0-2.9,2.5-4.5,6-4.5
	c1.9,0,3.2,0.2,4.6,0.6v-0.6c0-2.8-1.7-4.2-4.5-4.2c-1.7,0-3.1,0.5-4.3,1.1l-0.5-1.2c1.5-0.7,3-1.2,4.9-1.2c3.5,0,5.8,1.8,5.8,5.4
	v8.6H132.4z M132.4,48.5c-1.2-0.3-2.7-0.6-4.7-0.6c-2.9,0-4.5,1.3-4.5,3.2v0.1c0,2,1.9,3.2,4,3.2c2.8,0,5.2-1.7,5.2-4.2V48.5z"/>
<path class="st1" d="M147.6,55.3v-8.2c0-2.8-1.6-4.7-4.4-4.7c-2.7,0-4.8,2.1-4.8,4.9v8h-1.3V41.5h1.3V44c0.9-1.6,2.5-2.9,5-2.9
	c3.5,0,5.5,2.4,5.5,5.7v8.4H147.6z"/>
<path class="st1" d="M158.4,55.6c-4,0-7-3.3-7-7.2v-0.1c0-3.9,3.1-7.2,7-7.2c2.6,0,4.2,1.2,5.5,2.5l-0.9,1c-1.2-1.2-2.5-2.3-4.6-2.3
	c-3.1,0-5.6,2.6-5.6,5.9v0.1c0,3.3,2.5,6,5.7,6c1.9,0,3.5-1,4.6-2.3l0.9,0.8C162.7,54.4,161,55.6,158.4,55.6z"/>
<path class="st1" d="M171.9,54.3c2.1,0,3.6-0.9,4.7-2.2l0.9,0.8c-1.4,1.5-3.1,2.6-5.7,2.6c-3.6,0-6.8-2.9-6.8-7.2v-0.1
	c0-4,2.8-7.2,6.5-7.2c3.9,0,6.3,3.1,6.3,7.2v0.1c0,0.2,0,0.3,0,0.5h-11.4C166.8,52.3,169.2,54.3,171.9,54.3z M176.5,47.7
	c-0.2-2.8-1.8-5.4-5-5.4c-2.7,0-4.8,2.3-5.1,5.4H176.5z"/>
<path class="st0" d="M65.2,32.1c-6.9,0-12.4-5.6-12.4-12.4S58.3,7.2,65.2,7.2c6.9,0,12.4,5.6,12.4,12.4S72,32.1,65.2,32.1z
	 M65.2,8.3c-6.2,0-11.3,5.1-11.3,11.3s5.1,11.3,11.3,11.3s11.3-5.1,11.3-11.3S71.4,8.3,65.2,8.3z"/>
<circle class="st0" cx="65.2" cy="19.6" r="10.5"/>
<circle class="st2" cx="65.2" cy="19.6" r="11.1"/>
<g>
	<g>
		<path class="st1" d="M65.2,8.9c-1.9,0-3.5,4.8-3.5,10.7c0,5.9,1.6,10.7,3.5,10.7c1.9,0,3.5-4.8,3.5-10.7
			C68.7,13.6,67.1,8.9,65.2,8.9z M65.2,30c-1.7,0-3.2-4.7-3.2-10.5C62,13.7,63.4,9,65.2,9c1.7,0,3.2,4.7,3.2,10.5
			C68.3,25.3,66.9,30,65.2,30z"/>
		<path class="st1" d="M54.4,19.5c0,1.9,4.8,3.5,10.7,3.5c5.9,0,10.7-1.6,10.7-3.5c0-1.9-4.8-3.5-10.7-3.5
			C59.2,16,54.4,17.6,54.4,19.5z M75.7,19.5c0,1.7-4.7,3.1-10.6,3.1c-5.8,0-10.6-1.4-10.6-3.1c0-1.7,4.7-3.1,10.6-3.1
			C71,16.4,75.7,17.8,75.7,19.5z"/>
		<path class="st1" d="M57.6,12c-1.4,1.4,0.9,5.8,5.1,10c4.2,4.2,8.7,6.4,10.1,5.1c1.4-1.4-0.9-5.8-5.1-10
			C63.5,12.9,58.9,10.6,57.6,12z M72.6,27c-1.2,1.2-5.6-1.1-9.7-5.2c-4.1-4.1-6.5-8.4-5.3-9.6c1.2-1.2,5.6,1.1,9.7,5.2
			C71.5,21.4,73.9,25.7,72.6,27z"/>
		<path class="st1" d="M57.6,27.1c1.4,1.4,5.9-0.9,10.1-5.1c4.2-4.2,6.5-8.6,5.1-10c-1.4-1.4-5.9,0.9-10.1,5.1
			C58.5,21.2,56.2,25.7,57.6,27.1z M72.6,12.1c1.2,1.2-1.1,5.5-5.2,9.6c-4.1,4.1-8.5,6.4-9.7,5.2c-1.2-1.2,1.1-5.5,5.2-9.6
			C67.1,13.2,71.4,10.9,72.6,12.1z"/>
		<ellipse class="st1" cx="65.1" cy="19.6" rx="1.5" ry="1.5"/>
	</g>
	<path class="st0" d="M65.2,20.7c-0.7,0-1.3-0.6-1.3-1.3c0-0.3,0.1-0.6,0.3-0.8c-0.3,0.2-0.4,0.6-0.4,0.9c0,0.7,0.6,1.3,1.3,1.3
		c0.4,0,0.7-0.2,1-0.4C65.8,20.6,65.5,20.7,65.2,20.7z"/>
	<ellipse class="st1" cx="69.8" cy="12.1" rx="0.8" ry="0.8"/>
	<path class="st0" d="M69.8,12.7c-0.4,0-0.7-0.3-0.7-0.7c0-0.2,0.1-0.3,0.2-0.5c-0.1,0.1-0.2,0.3-0.2,0.5
		C69.1,12.5,69.4,12.8,69.8,12.7c0.1,0.1,0.3,0,0.5-0.2C70.2,12.6,70,12.7,69.8,12.7z"/>
	<g>
		<ellipse class="st1" cx="57.6" cy="14.6" rx="0.8" ry="0.8"/>
		<path class="st0" d="M57.6,15.2c-0.4,0-0.7-0.3-0.7-0.7c0-0.2,0.1-0.3,0.2-0.5c-0.1,0.1-0.2,0.3-0.2,0.5
			C56.9,15,57.2,15.3,57.6,15.2c0.1,0.1,0.3,0,0.5-0.2C58,15.1,57.8,15.2,57.6,15.2z"/>
	</g>
	<g>
		<ellipse class="st1" cx="63.1" cy="27.8" rx="0.8" ry="0.8"/>
		<path class="st0" d="M63.2,28.5c-0.4,0-0.7-0.3-0.7-0.7c0-0.2,0.1-0.3,0.2-0.5c-0.1,0.1-0.2,0.3-0.2,0.5
			C62.4,28.2,62.7,28.5,63.2,28.5c0.1,0.1,0.3,0,0.5-0.2C63.5,28.4,63.4,28.5,63.2,28.5z"/>
	</g>
</g>
<path class="st0" d="M116.3,32c-6.8,0-12.4-5.5-12.4-12.4c0-6.8,5.5-12.4,12.4-12.4c6.8,0,12.4,5.5,12.4,12.4
	C128.6,26.5,123.1,32,116.3,32z M116.3,8.4c-6.2,0-11.3,5.1-11.3,11.3c0,6.2,5.1,11.3,11.3,11.3c6.2,0,11.3-5.1,11.3-11.3
	C127.5,13.5,122.5,8.4,116.3,8.4z"/>
<g>
	<defs>
		<circle id="SVGID_2_" cx="116.2" cy="19.7" r="10.5"/>
	</defs>
	<clipPath id="SVGID_3_">
		<use xlink:href="#SVGID_2_"  style="overflow:visible;"/>
	</clipPath>
	<circle class="st3" cx="116.3" cy="19.7" r="10.5"/>
	<circle class="st4" cx="116.3" cy="19.7" r="10.5"/>
	<path class="st5" d="M109.5,40.1h2.7V28.3h-2.7V40.1z M112.9,18.2c-0.4-0.4-0.7-1.1-0.7-1.9c0-0.8,0.3-1.4,0.7-1.9
		c-3.8,0.1-6.7,0.9-6.7,1.9C106.2,17.3,109.1,18,112.9,18.2z M113.2,14.7c-0.4,0.4-0.6,0.9-0.6,1.6c0,0.5,0.2,1,0.4,1.4l0.4-0.6
		c-0.1-0.2-0.1-0.5-0.1-0.8c0-0.3,0.1-0.6,0.2-0.9L113.2,14.7z M115.2,15.2c-0.2-0.5-0.6-0.8-1-0.9l0.2,0.6
		C114.7,15,115,15.1,115.2,15.2z M114,18.3C114,18.3,114,18.3,114,18.3c0.6,0,1-0.4,1.3-0.9c-0.3,0.1-0.6,0.2-0.8,0.3L114,18.3z
		 M111.9,19.1v-0.5c-0.7,0-1.3-0.1-2-0.2v3.5L111.9,19.1z M109.9,26.4v1.5h2v-3.4C111.3,25.1,110.7,25.7,109.9,26.4z M124.2,17
		c-2.3-1.1-3.7-1.5-6.2-1.8l-0.9,1.4l-1.1-0.2c0,0,0,0,0-0.1c0-0.4-0.7-0.8-1.7-1.1l-4.7-13.1c-0.2,1.9-0.2,3.1,0,5
		c0.3,2.7,0.7,4.3,1.8,6.8l1.8,0.1l0.6,1.5c-0.1,0.2-0.2,0.5-0.2,0.9c0,0.3,0.1,0.6,0.2,0.8l-8.8,12.4c1.9-1,2.9-1.7,4.5-3.1
		c2.2-2,3.4-3.3,4.9-5.9l-1-1.7l1-1.4c0.6-0.2,1.1-0.4,1.4-0.6l12.5,2.5C126.8,18.3,125.9,17.7,124.2,17z"/>
	<path class="st5" d="M122.3,21.3c-0.2-0.3-0.4-0.6-0.7-0.6l0.2,0.4C121.9,21.1,122.1,21.2,122.3,21.3z M120.8,20.9
		c-0.3,0.3-0.4,0.7-0.4,1.1c0,0.4,0.1,0.7,0.3,1l0.3-0.4c-0.1-0.2-0.1-0.4-0.1-0.6c0-0.2,0-0.4,0.1-0.6L120.8,20.9z M119.4,15.1
		l-1.1-3.1c-0.1,1.1-0.1,1.9-0.1,2.8C118.6,14.9,119,15,119.4,15.1z M120.7,23.4c-0.3-0.3-0.5-0.8-0.5-1.3c0-0.5,0.2-1,0.5-1.3
		c-2.7,0.1-4.8,0.6-4.8,1.3C115.9,22.7,118,23.3,120.7,23.4z M121.4,23.5C121.4,23.5,121.4,23.5,121.4,23.5c0.4,0,0.7-0.3,0.9-0.7
		c-0.2,0.1-0.4,0.2-0.6,0.2L121.4,23.5z M128.6,22.5c-1.6-0.8-2.6-1-4.4-1.3l-0.7,1l-0.8-0.1c0,0,0,0,0,0c0-0.3-0.5-0.6-1.2-0.8
		l-1.2-3.3l-1.8-0.4c0.2,0.9,0.5,1.7,1,2.7l1.3,0.1l0.4,1c-0.1,0.2-0.1,0.4-0.1,0.6c0,0.2,0,0.4,0.1,0.6l-6.2,8.8
		c1.3-0.7,2-1.2,3.2-2.2c1.6-1.4,2.4-2.3,3.5-4.2l-0.7-1.2l0.7-1c0.4-0.1,0.8-0.3,1-0.4l8.9,1.8C130.4,23.4,129.8,23.1,128.6,22.5z
		 M118.5,29.2v1h1.4v-2.4C119.5,28.3,119.1,28.7,118.5,29.2z M119.9,24v-0.4c-0.5,0-0.9-0.1-1.4-0.1V26L119.9,24z M118.2,38h1.9
		v-7.5h-1.9V38z"/>
</g>
<path class="st0" d="M13.6,32C6.7,32,1.2,26.5,1.2,19.6S6.7,7.2,13.6,7.2c6.9,0,12.4,5.6,12.4,12.4S20.4,32,13.6,32z M13.6,8.3
	c-6.2,0-11.3,5.1-11.3,11.3s5.1,11.3,11.3,11.3c6.2,0,11.3-5.1,11.3-11.3S19.8,8.3,13.6,8.3z"/>
<circle class="st0" cx="13.6" cy="19.6" r="10.5"/>
<circle class="st2" cx="13.6" cy="19.6" r="10.5"/>
<g>
	<path class="st1" d="M7.9,16.8L7.9,16.8c0,0,0.1,0,0.1,0c0,0,0,0,0,0l0,0c0,0,0,0,0.1,0l0,0c0,0,0.1,0,0.1,0l0,0c0,0,0,0,0.1,0l0,0
		c0,0,0.1,0,0.1,0l0,0l0,0l0,0l0,0c0,0,0,0,0,0l0,0l0,0l0,0l0,0c0,0,0,0,0,0c0,0,0,0,0,0l0,0l0,0l0,0c0,0,0,0,0,0c0,0,0,0,0,0l0,0
		l0,0l0,0l0,0c0,0,0,0,0,0l0.1,0l0.1,0c0,0,0,0,0.1,0c0,0,0,0,0,0l0,0c0,0,0,0,0,0c0,0,0,0,0,0c0,0,0,0,0,0c0,0,0.1,0,0.1,0
		c0,0,0,0,0,0c0,0,0.1,0,0.1,0c0,0,0,0,0.1,0c0,0,0,0,0,0c0,0,0.1,0,0.1,0c0,0,0,0,0.1,0l0,0c0,0,0,0,0.1,0l0,0l0,0l0,0
		c0,0,0.1,0,0.1,0l0,0l0,0c0,0,0,0,0,0l0,0l0,0l0,0c0,0,0,0,0,0l0,0l0,0l0,0l0,0l0,0l0,0l0,0l0,0l0,0l0,0c0,0,0,0,0.1,0
		c0,0,0.1,0,0.1,0.1l0,0l0,0c0,0,0,0,0,0l0,0l0,0c0,0,0,0,0,0l0,0l0,0c0,0,0,0,0,0l0,0l0,0l0,0l0,0l0,0c0,0,0,0,0,0l0,0l0,0
		c0,0,0,0,0,0l0,0l0,0l0,0l0,0c0,0,0,0,0.1,0.1c0,0,0,0,0,0c0,0,0.1,0.1,0.1,0.1l0,0c0,0,0,0.1,0.1,0.1l0,0l0,0c0,0,0,0.1,0.1,0.1
		c0,0,0,0,0,0l0,0l0,0c0,0,0.1,0.1,0.1,0.1c0,0,0,0,0,0l0,0c0,0.1,0.1,0.1,0.1,0.2l0,0l0,0c0,0.1,0.1,0.1,0.1,0.2l0,0l0,0
		c0,0.1,0.1,0.2,0.1,0.2l0,0c0,0.1,0,0.1,0,0.1l0,0l0,0c0,0,0,0,0,0.1l0,0l0,0l0,0l0,0l0,0l0,0l0,0l0,0l0,0l0,0l0,0l0,0l0,0
		c0,0,0,0,0,0l0,0l0,0l0,0l0,0l0,0l0,0l0,0l0,0.1l0,0l0,0c0,0,0,0.1,0,0.1l0,0l0,0l0,0l0,0l0,0l0,0l0,0.1c0,0,0,0.1,0,0.1
		c0,0,0,0,0,0v0c0,0,0,0,0,0l0,0v0c0,0,0,0.1,0,0.1v0l0,0l0,0c0,0,0,0.1,0,0.1c0,0,0,0.1,0,0.1l0,0l0,0c0,0,0,0.1,0,0.1
		c0,0,0,0.1,0,0.1l0,0l0,0c0,0,0,0.1,0,0.1c0,0,0,0,0,0l0,0l0,0c0,0,0,0,0,0c0,0,0,0.1,0,0.1l0,0l0,0l0,0c0,0,0,0,0,0.1
		c0,0,0,0,0,0.1l0,0l0,0l0,0c0,0,0,0.1-0.1,0.1c0,0,0,0,0,0l0,0l0,0c0,0,0,0,0,0.1c0,0.1-0.1,0.1-0.1,0.2c0,0-0.1,0.1-0.1,0.1l0,0
		l0,0c0,0,0,0-0.1,0.1l0,0l0,0c0,0-0.1,0.1-0.1,0.1c0,0-0.1,0-0.1,0.1c0,0,0,0,0,0c0,0-0.1,0-0.1,0c0,0,0,0,0,0c0,0-0.1,0-0.1,0
		l-0.1,0l-0.1,0c0,0,0,0,0,0c0,0,0,0,0,0l0,0l0,0c0,0,0,0.1,0,0.1l0,0l0,0c0,0.1-0.1,0.1-0.1,0.2c0,0-0.1,0.1-0.1,0.1c0,0,0,0,0,0
		l0,0c0,0-0.1,0.1-0.1,0.1l0,0l0,0c0,0-0.1,0.1-0.1,0.1c0,0-0.1,0.1-0.1,0.1c0,0,0,0,0,0c0,0-0.1,0-0.1,0.1c0,0,0,0,0,0
		c4.6,1.7,14.1-0.3,13.9-4.3c-0.1-3.7-2.2-6.8-5.5-7.7C14.3,10.5,9.8,12,7.9,16.8C7.9,16.8,7.9,16.8,7.9,16.8L7.9,16.8z M23.5,18.6
		c0,0.2,0,0.5,0,0.7c0.1,2.9-4.5,4.8-9,5.1c-2.2,0.1-4.1-0.1-5.5-0.7l-0.2,0.1l-0.7,0.2h0l-0.1,0l0,0c-0.1,0-0.1,0-0.2,0
		c-0.2,0-0.4,0-0.5-0.1c-0.8-0.2-1.6-1.1-2-2.1c-1.3,1.7,0,3.1,0.8,3.8c3.3,2.4,6,0.7,9,0.2C22.2,24.7,26.2,20.9,23.5,18.6z"/>
	<path class="st1" d="M11.4,20.2C11.4,20.2,11.4,20.1,11.4,20.2C11.4,20.1,11.4,20.1,11.4,20.2c0-0.1,0-0.1,0-0.1c0,0,0,0,0,0
		c0,0,0,0,0,0c0,0,0,0,0-0.1c0,0,0,0,0,0c0,0,0,0,0,0c0,0,0,0,0,0c0,0,0,0,0,0c0,0,0,0,0,0c0,0,0,0,0,0c0,0,0,0,0,0c0,0,0,0,0,0
		c0,0,0,0,0,0c0,0,0,0,0-0.1c0,0,0,0,0,0c0,0,0,0,0,0c0,0,0,0,0,0c0,0,0,0,0-0.1c0,0,0,0,0,0c0,0,0,0,0,0c0,0,0-0.1,0-0.1
		c0,0,0,0,0,0c0,0,0,0,0,0c0-0.1-0.1-0.2-0.1-0.2c0,0,0,0,0,0c0-0.1-0.1-0.1-0.1-0.2c0,0,0,0,0,0c0,0,0,0,0,0c0-0.1-0.1-0.1-0.1-0.2
		c0,0,0,0,0,0c0,0,0,0,0,0c0,0-0.1-0.1-0.1-0.1c0,0,0,0,0,0c0,0,0,0,0,0c0,0,0-0.1-0.1-0.1c0,0,0,0,0,0c0,0,0,0,0,0
		c0,0,0-0.1-0.1-0.1c0,0,0,0,0,0c0,0,0,0,0,0c0,0-0.1-0.1-0.1-0.1c0,0,0,0,0,0c0,0,0,0,0,0c0,0,0,0,0-0.1c0,0,0,0,0,0c0,0,0,0,0,0
		c0,0,0,0,0,0c0,0,0,0,0,0c0,0,0,0,0,0c0,0,0,0,0,0c0,0,0,0,0,0c0,0,0,0,0,0c0,0,0,0,0,0c0,0,0,0,0,0c0,0,0,0,0,0c0,0,0,0,0,0
		c0,0,0,0,0,0c0,0,0,0-0.1-0.1c0,0,0,0,0,0l0,0c0,0,0,0-0.1,0c0,0,0,0,0,0c0,0,0,0,0,0c0,0,0,0,0,0c0,0,0,0,0,0c0,0,0,0,0,0
		c0,0,0,0,0,0c0,0,0,0,0,0c0,0,0,0,0,0c0,0,0,0,0,0c0,0,0,0,0,0c0,0,0,0,0,0c0,0,0,0,0,0c0,0,0,0-0.1,0c0,0,0,0,0,0c0,0,0,0,0,0
		c0,0,0,0-0.1,0c0,0,0,0,0,0c0,0,0,0-0.1,0c0,0-0.1,0-0.1,0c0,0,0,0,0,0c0,0,0,0,0,0c0,0,0,0-0.1,0c0,0,0,0-0.1,0c0,0,0,0,0,0
		c0,0,0,0,0,0c0,0-0.1,0-0.1,0c0,0,0,0,0,0c0,0,0,0,0,0c0,0,0,0,0,0c0,0,0,0-0.1,0l-0.1,0h0l0,0c0,0,0,0,0,0c0,0,0,0,0,0
		c0,0,0,0,0,0l0,0c0,0,0,0,0,0l0,0c0,0,0,0,0,0l0,0l0,0l0,0l0,0l0,0l0,0l0,0l0,0l0,0l0,0l0,0c0,0,0,0,0.1,0.1l0,0l0,0l0,0
		c0,0,0.1,0.1,0.1,0.1l0,0c0,0,0.1,0.1,0.1,0.1l0,0l0,0l0,0l0,0c0,0,0.1,0.1,0.1,0.1l0,0l0,0l0,0c0,0.1,0.1,0.1,0.1,0.2l0,0l0,0
		c0,0.1,0.1,0.2,0.1,0.2c0,0.1,0.1,0.2,0.1,0.3l0,0l0,0c0,0.1,0.1,0.2,0.1,0.3l0,0c0,0.1,0,0.1,0.1,0.2l0,0l0,0c0,0,0,0,0,0
		c0,0,0,0.1,0,0.1l0,0l0,0l0,0l0,0c0,0,0,0.1,0,0.1l0,0l0,0l0,0l0,0.1l0,0l0,0l0,0l0,0l0,0l0,0.1l0,0l0,0l0,0l0,0l0,0.1l0,0
		c0,0,0,0,0,0.1l0,0l0,0l0,0c0,0.1,0,0.1,0,0.1l0,0l0,0l0,0c0,0,0,0,0,0.1l0,0c0,0,0,0.1,0,0.1c0,0,0,0.1,0,0.1v0l0,0l0,0l0,0
		c0,0,0,0.1,0,0.1c0,0,0,0.1,0,0.1l0,0l0,0l0,0c0,0,0,0.1,0,0.1c0,0,0,0.1,0,0.1l0,0c0,0,0,0.1,0,0.1c0,0,0,0.1,0,0.1c0,0,0,0,0,0
		c0,0,0,0.1,0,0.1l0,0l0,0l0,0l0,0l0,0c0,0,0,0.1,0,0.1l0,0l0,0l0,0c0,0,0,0,0,0c0,0,0,0,0,0l0.1,0c0,0,0.1,0,0.1,0c0,0,0,0,0,0
		c0,0,0,0,0.1,0c0,0,0,0,0,0c0,0,0.1,0,0.1-0.1c0,0,0,0,0,0c0,0,0.1,0,0.1-0.1c0,0,0,0,0,0c0,0,0,0,0.1-0.1c0,0,0,0,0,0
		c0,0,0.1-0.1,0.1-0.1l0,0c0,0,0.1-0.1,0.1-0.1c0,0,0,0,0,0c0,0,0,0,0-0.1c0,0,0,0,0,0c0,0,0,0,0,0c0,0,0-0.1,0-0.1c0,0,0,0,0,0
		c0,0,0,0,0,0c0,0,0,0,0-0.1c0,0,0,0,0,0c0,0,0,0,0,0c0,0,0,0,0,0c0,0,0-0.1,0-0.1c0,0,0,0,0,0c0,0,0,0,0,0c0,0,0,0,0,0
		c0,0,0-0.1,0-0.1l0,0c0,0,0,0,0,0c0,0,0,0,0-0.1c0,0,0-0.1,0-0.1c0,0,0,0,0,0c0,0,0,0,0,0c0,0,0-0.1,0-0.1c0,0,0,0,0-0.1
		c0,0,0,0,0,0c0,0,0,0,0,0c0,0,0-0.1,0-0.1c0,0,0,0,0-0.1c0,0,0,0,0,0c0,0,0,0,0,0c0,0,0-0.1,0-0.1c0,0,0,0,0-0.1
		C11.4,20.3,11.4,20.2,11.4,20.2C11.4,20.2,11.4,20.2,11.4,20.2z"/>
	<path class="st1" d="M10.4,20.7C10.4,20.7,10.4,20.7,10.4,20.7C10.4,20.6,10.4,20.6,10.4,20.7c0-0.1,0-0.1,0-0.2c0,0,0,0,0,0
		c0,0,0,0,0,0c0,0,0-0.1,0-0.1c0,0,0,0,0,0c0,0,0,0,0-0.1c0,0,0,0,0-0.1c0,0,0,0,0,0c0,0,0,0,0-0.1c0,0,0,0,0,0c0,0,0,0,0,0
		c0,0,0,0,0-0.1c0,0,0,0,0,0c0,0,0,0,0-0.1c0,0,0,0,0-0.1c0,0,0,0,0,0c0,0,0,0,0,0c0,0,0-0.1,0-0.1c0,0,0,0,0,0c0,0,0,0,0,0
		c0-0.1,0-0.1-0.1-0.2c0,0,0,0,0,0c0,0,0,0,0,0c0-0.1-0.1-0.2-0.1-0.3c0,0,0,0,0,0c0-0.1-0.1-0.2-0.1-0.3c0,0,0,0,0,0c0,0,0,0,0,0
		c0-0.1-0.1-0.2-0.1-0.2c0,0,0,0,0,0c0,0,0,0,0,0c0-0.1-0.1-0.1-0.1-0.2c0,0,0,0,0,0c0,0,0,0,0,0c0,0-0.1-0.1-0.1-0.1c0,0,0,0,0,0
		c0,0,0,0,0,0c0,0-0.1-0.1-0.1-0.1c0,0,0,0,0,0c0,0,0,0,0,0c0,0-0.1-0.1-0.1-0.1c0,0,0,0,0,0c0,0,0,0,0,0c0,0,0,0-0.1-0.1
		c0,0,0,0,0,0c0,0,0,0,0,0c0,0,0,0,0-0.1c0,0,0,0,0,0c0,0,0,0,0,0c0,0,0,0,0,0c0,0,0,0,0,0c0,0,0,0,0,0c0,0,0,0,0,0c0,0,0,0,0,0
		c0,0,0,0-0.1,0c0,0,0,0,0,0c0,0,0,0,0,0c0,0-0.1,0-0.1-0.1c0,0,0,0,0,0c0,0,0,0,0,0c0,0,0,0-0.1,0c0,0,0,0,0,0c0,0,0,0,0,0
		c0,0,0,0,0,0c0,0,0,0,0,0c0,0,0,0,0,0c0,0,0,0,0,0c0,0,0,0,0,0c0,0,0,0,0,0c0,0,0,0,0,0c0,0,0,0-0.1,0c0,0,0,0,0,0c0,0,0,0,0,0
		c0,0-0.1,0-0.1,0c0,0,0,0,0,0c0,0,0,0,0,0c0,0,0,0-0.1,0c0,0,0,0,0,0c0,0,0,0-0.1,0c0,0,0,0,0,0c0,0,0,0-0.1,0c0,0,0,0,0,0
		c0,0,0,0,0,0c0,0-0.1,0-0.1,0c0,0,0,0,0,0c0,0,0,0,0,0c0,0-0.1,0-0.1,0c0,0,0,0,0,0c0,0,0,0,0,0c0,0-0.1,0-0.1,0c0,0,0,0,0,0
		c0,0,0,0,0,0c0,0-0.1,0-0.1,0c0,0,0,0,0,0c0,0,0,0-0.1,0c-0.1,0-0.2,0.1-0.4,0.1c0,0,0,0,0.1,0c1.2,0.3,2.3,2.1,2.4,3.9
		c0.1,1-0.2,1.9-0.7,2.4c0.1,0,0.2-0.1,0.4-0.1c0,0,0.1,0,0.1,0c0,0,0,0,0,0c0,0,0.1,0,0.1,0c0,0,0,0,0,0c0,0,0.1,0,0.1-0.1l0,0
		c0,0,0.1-0.1,0.1-0.1c0,0,0,0,0,0c0,0,0.1-0.1,0.1-0.1c0,0,0,0,0,0c0,0,0.1-0.1,0.1-0.1l0,0c0-0.1,0.1-0.1,0.1-0.2c0,0,0,0,0,0
		c0,0,0-0.1,0-0.1c0,0,0,0,0-0.1c0,0,0,0,0,0c0,0,0-0.1,0.1-0.1c0,0,0,0,0,0c0,0,0,0,0,0c0,0,0-0.1,0-0.1c0,0,0,0,0-0.1c0,0,0,0,0,0
		c0,0,0,0,0,0c0,0,0-0.1,0-0.1c0,0,0,0,0,0c0,0,0,0,0,0c0,0,0,0,0-0.1c0,0,0-0.1,0-0.1c0,0,0,0,0,0c0,0,0,0,0,0c0,0,0-0.1,0-0.1
		c0,0,0-0.1,0-0.1c0,0,0,0,0,0c0,0,0,0,0,0c0,0,0-0.1,0-0.1c0,0,0-0.1,0-0.1c0,0,0,0,0,0c0,0,0,0,0,0c0,0,0-0.1,0-0.1
		c0,0,0-0.1,0-0.1c0,0,0,0,0,0c0,0,0,0,0,0c0,0,0-0.1,0-0.1c0,0,0-0.1,0-0.1C10.4,20.8,10.4,20.8,10.4,20.7
		C10.4,20.7,10.4,20.7,10.4,20.7z"/>
	<path class="st1" d="M7,17.4c1.2,0.3,2.2,2,2.3,3.7c0.1,1.7-0.8,2.9-1.9,2.6c-1.2-0.3-2.2-2-2.3-3.7C5,18.2,5.9,17.1,7,17.4z"/>
	<path class="st0" d="M7.8,23.3c-0.1,0-0.2,0-0.3,0c-1-0.3-1.9-1.8-2-3.4c-0.1-1.2,0.4-2.2,1.1-2.2c0.1,0,0.2,0,0.3,0
		c1,0.3,1.9,1.8,2,3.4C9,22.4,8.5,23.3,7.8,23.3L7.8,23.3z"/>
	<path class="st0" d="M18.4,21.1c0.1,0.3,0.1,0.5,0,0.8c0,0.2-0.5,0.8-4.3,1.7c4.8-0.3,8.1-2.5,8.3-3.8c0.2-1.4-0.2-4-1.9-5.8
		C23.3,18.9,19.7,20.7,18.4,21.1z"/>
</g>
<circle class="st2" cx="13.6" cy="19.6" r="10.5"/>
<path class="st0" d="M39.4,32.2c-6.9,0-12.4-5.6-12.4-12.4S32.6,7.3,39.4,7.3c6.9,0,12.4,5.6,12.4,12.4S46.3,32.2,39.4,32.2z
	 M39.4,8.4c-6.2,0-11.3,5.1-11.3,11.3c0,6.2,5.1,11.3,11.3,11.3c6.2,0,11.3-5.1,11.3-11.3C50.8,13.5,45.7,8.4,39.4,8.4z"/>
<g>
	<defs>
		<circle id="SVGID_4_" cx="39.4" cy="19.7" r="10.5"/>
	</defs>
	<clipPath id="SVGID_5_">
		<use xlink:href="#SVGID_4_"  style="overflow:visible;"/>
	</clipPath>
	<circle class="st6" cx="39.4" cy="19.7" r="10.5"/>
	<g class="st7">
		<path class="st1" d="M34.1,25.3"/>
		<path class="st1" d="M34.1,25.3"/>
		<g>
			<circle class="st0" cx="34.1" cy="25.3" r="0.3"/>
			<path class="st0" d="M34.1,25.3"/>
		</g>
		<path class="st0" d="M35.2,24.9c0,0.1,0.1,0.3,0.1,0.4c0,0.6-0.5,1.2-1.2,1.2c-0.6,0-1.2-0.5-1.2-1.2c0-0.1,0-0.2,0-0.3l0.1-0.3
			h-1.7v-0.4h1.9l0.2-0.5h0.4c0,0-0.2,0.5-0.2,0.5l-0.3,0.7c0,0.1,0,0.2,0,0.2c0,0.4,0.4,0.8,0.8,0.8c0.4,0,0.8-0.4,0.8-0.8
			c0-0.1,0-0.2,0-0.3l-0.4-1.2h0.4l0.2,0.5h2v0.4h-1.9L35.2,24.9z"/>
	</g>
</g>
<g>
	<g>
		<path class="st8" d="M40.3,29.5"/>
	</g>
	<g>
		<path class="st8" d="M40.3,29.5"/>
	</g>
	<g>
		<path class="st1" d="M45.1,21.9c-0.3-2.2-2.5-6.1-7-10.4c1.7,3.2-0.4,4.6-3.5,10c-1.1,1.9-1.4,4.7,0.7,6.9
			c1.5,1.5,4.7,3.1,7.7,0.3C45.4,26.6,45.4,24.2,45.1,21.9z"/>
		<path class="st1" d="M39.5,30.6c-1.9,0-3.5-1.1-4.3-1.9c-2.3-2.4-1.9-5.3-0.8-7.3c0.8-1.4,1.5-2.5,2.1-3.4
			c1.8-2.8,2.6-4.1,1.4-6.3l0.5-0.3c4.9,4.7,6.9,8.5,7.1,10.6c0.3,2.4,0.2,4.8-2.2,7.1C41.9,30.1,40.6,30.6,39.5,30.6z M38.9,12.7
			c0.5,1.8-0.5,3.3-2,5.6c-0.6,1-1.3,2-2.1,3.4c-1,1.8-1.4,4.4,0.7,6.6c1.3,1.4,4.3,3,7.3,0.3c2.1-2,2.4-4.1,2.1-6.6l0,0
			C44.6,20.2,42.9,16.8,38.9,12.7z"/>
	</g>
	<path class="st9" d="M42.4,24.7c0-0.2,0.1-2-2.5-6.5c-0.1,2.1-1.3,3.6-2.8,6.3c-0.5,0.9-0.7,2.3,0.4,3.5c0.7,0.8,2.3,1.5,3.8,0.2
		C42.5,27,42.6,25.8,42.4,24.7z"/>
</g>
<path class="st0" d="M90.7,32.2c-6.9,0-12.4-5.6-12.4-12.4S83.8,7.3,90.7,7.3c6.9,0,12.4,5.6,12.4,12.4S97.6,32.2,90.7,32.2z
	 M90.7,8.4c-6.2,0-11.3,5.1-11.3,11.3c0,6.2,5.1,11.3,11.3,11.3c6.2,0,11.3-5.1,11.3-11.3C102,13.5,96.9,8.4,90.7,8.4z"/>
<g>
	<defs>
		<circle id="SVGID_6_" cx="90.7" cy="19.7" r="10.5"/>
	</defs>
	<clipPath id="SVGID_7_">
		<use xlink:href="#SVGID_6_"  style="overflow:visible;"/>
	</clipPath>
	<circle class="st10" cx="90.7" cy="19.7" r="10.5"/>
	<g class="st11">
		<path class="st1" d="M85.4,25.3"/>
		<path class="st1" d="M85.4,25.3"/>
		<g>
			<circle class="st0" cx="85.4" cy="25.3" r="0.3"/>
			<path class="st0" d="M85.4,25.3"/>
		</g>
		<path class="st0" d="M86.5,24.9c0,0.1,0.1,0.3,0.1,0.4c0,0.6-0.5,1.2-1.2,1.2c-0.6,0-1.2-0.5-1.2-1.2c0-0.1,0-0.2,0-0.3l0.1-0.3
			h-1.7v-0.4h1.9l0.2-0.5h0.4c0,0-0.2,0.5-0.2,0.5l-0.3,0.7c0,0.1,0,0.2,0,0.2c0,0.4,0.4,0.8,0.8,0.8c0.4,0,0.8-0.4,0.8-0.8
			c0-0.1,0-0.2,0-0.3l-0.4-1.2h0.4l0.2,0.5h2v0.4h-1.9L86.5,24.9z"/>
	</g>
</g>
<g>
	<path class="st1" d="M85.9,11.4c1.7,1.3,1.9,2.3,3.1,2c1.2-0.3,0.9-1.1,1.7-3.3l0,0c0.8,1.9,0.5,2.9,1.6,3.3c1.2,0.3,1.3-0.5,3.1-2
		l0,0c-0.3,2.1-1.1,2.8-0.2,3.7c0.9,0.9,1.4,0.2,3.7-0.2l0,0c-1.3,1.7-2.3,1.9-2,3.1c0.3,1.2,1.1,0.9,3.3,1.7v0
		c-1.9,0.8-2.9,0.5-3.3,1.6c-0.3,1.2,0.5,1.3,2,3.1l0,0c-2.1-0.3-2.8-1.1-3.7-0.2c-0.9,0.9-0.2,1.4,0.2,3.7l0,0
		c-1.7-1.3-1.9-2.3-3.1-2c-1.2,0.3-0.9,1.1-1.7,3.3h0c-0.8-1.9-0.5-2.9-1.6-3.3c-1.2-0.3-1.3,0.5-3.1,2l0,0c0.3-2.1,1.1-2.8,0.2-3.7
		c-0.9-0.9-1.4-0.2-3.7,0.2l0,0c1.3-1.7,2.3-1.9,2-3.1c-0.3-1.2-1.1-0.9-3.3-1.7l0,0c1.9-0.8,2.9-0.5,3.3-1.6c0.3-1.2-0.5-1.3-2-3.1
		c2.1,0.3,2.8,1.1,3.7,0.2C87,14.3,86.3,13.7,85.9,11.4z"/>
	<g>
		<g>
			<path class="st1" d="M85.2,19.7c0-3.1,2.5-5.6,5.6-5.6c3.1,0,5.6,2.5,5.6,5.6c0,2.8-2.8,5.6-5.6,5.6
				C87.6,25.2,85.2,22.8,85.2,19.7z"/>
			<path class="st12" d="M90.7,25.8c-3.4,0-6.1-2.8-6.1-6.1s2.8-6.1,6.1-6.1s6.1,2.8,6.1,6.1C96.9,22.8,93.8,25.8,90.7,25.8z
				 M90.7,14.7c-2.7,0-5,2.2-5,5s2.2,5,5,5c2.4,0,5-2.6,5-5C95.7,16.9,93.5,14.7,90.7,14.7z"/>
		</g>
		<path class="st13" d="M90.7,19.7"/>
	</g>
</g>
<path class="st0" d="M167.7,32.2c-6.9,0-12.4-5.6-12.4-12.4s5.6-12.4,12.4-12.4c6.9,0,12.4,5.6,12.4,12.4S174.5,32.2,167.7,32.2z
	 M167.7,8.4c-6.2,0-11.3,5.1-11.3,11.3c0,6.2,5.1,11.3,11.3,11.3c6.2,0,11.3-5.1,11.3-11.3C179,13.5,173.9,8.4,167.7,8.4z"/>
<g>
	<defs>
		<circle id="SVGID_8_" cx="167.7" cy="19.7" r="10.5"/>
	</defs>
	<clipPath id="SVGID_9_">
		<use xlink:href="#SVGID_8_"  style="overflow:visible;"/>
	</clipPath>
	<circle class="st14" cx="167.7" cy="19.7" r="10.5"/>
	<g class="st15">
		<path class="st1" d="M162.3,25.3"/>
		<path class="st1" d="M162.3,25.3"/>
		<g>
			<circle class="st0" cx="162.3" cy="25.3" r="0.3"/>
			<path class="st0" d="M162.3,25.3"/>
		</g>
		<path class="st0" d="M163.4,24.9c0,0.1,0.1,0.3,0.1,0.4c0,0.6-0.5,1.2-1.2,1.2c-0.6,0-1.2-0.5-1.2-1.2c0-0.1,0-0.2,0-0.3l0.1-0.3
			h-1.7v-0.4h1.9l0.2-0.5h0.4c0,0-0.2,0.5-0.2,0.5l-0.3,0.7c0,0.1,0,0.2,0,0.2c0,0.4,0.4,0.8,0.8,0.8c0.4,0,0.8-0.4,0.8-0.8
			c0-0.1,0-0.2,0-0.3l-0.4-1.2h0.4l0.2,0.5h2v0.4h-1.9L163.4,24.9z"/>
	</g>
</g>
<g>
	<g>
		<path class="st13" d="M167.7,19.7"/>
	</g>
</g>
<g>
	<polygon class="st1" points="158.5,15.6 158.5,23.9 161.3,23.9 161.3,14.6 	"/>
	<polygon class="st1" points="164.4,16.8 164.4,23.9 162.2,23.9 162.2,17.6 163.8,17 163.8,15.5 169.7,13.4 176.8,19.2 176.8,23.9 
		165.9,23.9 165.9,16.8 	"/>
	<polygon class="st1" points="169.7,13.7 169.7,23.6 176.6,23.6 176.6,19.3 	"/>
	<polygon class="st16" points="170.5,23.2 176.1,23.2 176.1,22.6 170.5,22.1 	"/>
	<polygon class="st16" points="170.5,18.1 176.1,20.3 176.1,20.9 170.5,19.6 	"/>
	<polygon class="st16" points="170.5,15.5 170.5,17.3 176.1,19.9 176.1,19.4 	"/>
	<polygon class="st16" points="170.5,20.3 170.5,21.4 176.1,22.2 176.1,21.4 	"/>
</g>
<path class="st0" d="M141.9,32.2c-6.9,0-12.4-5.6-12.4-12.4S135,7.3,141.9,7.3c6.9,0,12.4,5.6,12.4,12.4S148.7,32.2,141.9,32.2z
	 M141.9,8.4c-6.2,0-11.3,5.1-11.3,11.3c0,6.2,5.1,11.3,11.3,11.3c6.2,0,11.3-5.1,11.3-11.3C153.2,13.5,148.1,8.4,141.9,8.4z"/>
<g>
	<defs>
		<circle id="SVGID_10_" cx="141.9" cy="19.7" r="10.5"/>
	</defs>
	<clipPath id="SVGID_11_">
		<use xlink:href="#SVGID_10_"  style="overflow:visible;"/>
	</clipPath>
	<circle class="st17" cx="141.9" cy="19.7" r="10.5"/>
	<g class="st18">
		<path class="st1" d="M136.6,25.3"/>
		<path class="st1" d="M136.6,25.3"/>
		<g>
			<circle class="st0" cx="136.6" cy="25.3" r="0.3"/>
			<path class="st0" d="M136.6,25.3"/>
		</g>
		<path class="st0" d="M137.7,24.9c0,0.1,0.1,0.3,0.1,0.4c0,0.6-0.5,1.2-1.2,1.2c-0.6,0-1.2-0.5-1.2-1.2c0-0.1,0-0.2,0-0.3l0.1-0.3
			h-1.7v-0.4h1.9l0.2-0.5h0.4c0,0-0.2,0.5-0.2,0.5l-0.3,0.7c0,0.1,0,0.2,0,0.2c0,0.4,0.4,0.8,0.8,0.8s0.8-0.4,0.8-0.8
			c0-0.1,0-0.2,0-0.3l-0.4-1.2h0.4l0.2,0.5h2v0.4h-1.9L137.7,24.9z"/>
	</g>
</g>
<g>
	<path class="st13" d="M141.9,20.1"/>
</g>
<path class="st1" d="M136.1,29.5c-0.1,0-0.2,0-0.3-0.1c-0.5-0.2-0.7-0.7-0.5-1.1l5.7-15.8c0.1-0.3,0.5-0.6,0.8-0.6c0,0,0,0,0,0
	c0.4,0,0.7,0.2,0.8,0.6l5.8,15.8c0.2,0.5-0.1,1-0.5,1.1c-0.5,0.2-1-0.1-1.1-0.5l-4.9-13.5L137,29C136.8,29.3,136.5,29.5,136.1,29.5z
	"/>
<path class="st1" d="M174.4,27.1h-12.5c-0.6,0-1-0.5-1-1c0-0.6,0.5-1,1-1h12.5c0.6,0,1,0.5,1,1C175.4,26.6,175,27.1,174.4,27.1z"/>
<path class="st1" d="M141.9,27.5c-0.2,0-0.5-0.1-0.7-0.3l-3.6-4c-0.2-0.3-0.3-0.6-0.1-0.9c0.1-0.3,0.5-0.5,0.8-0.5h7.1
	c0.3,0,0.7,0.2,0.8,0.5c0.1,0.3,0.1,0.7-0.1,0.9l-3.6,4C142.4,27.4,142.1,27.5,141.9,27.5L141.9,27.5z M140.3,23.5l1.6,1.8l1.6-1.8
	H140.3z"/>
<path class="st1" d="M141.9,23.5c-0.3,0-0.6-0.2-0.8-0.5l-2.1-4.1c-0.1-0.3-0.1-0.6,0-0.9c0.2-0.3,0.4-0.4,0.7-0.4h4.1
	c0.3,0,0.6,0.2,0.7,0.4c0.2,0.3,0.2,0.6,0,0.9l-2.1,4.1C142.5,23.3,142.2,23.5,141.9,23.5C141.9,23.5,141.9,23.5,141.9,23.5z
	 M141.2,19.4l0.7,1.3l0.6-1.3H141.2z"/>
<path class="st1" d="M141.9,19.4c-0.2,0-0.3,0-0.4-0.1l-8.1-4.8c-0.3-0.2-0.5-0.6-0.4-1c0.1-0.4,0.4-0.6,0.8-0.6H150
	c0.4,0,0.7,0.3,0.8,0.6c0.1,0.4-0.1,0.8-0.4,1l-8.1,4.8C142.2,19.4,142.1,19.4,141.9,19.4z M137,14.6l4.9,2.9l4.9-2.9H137z"/>
<g>
	<path class="st1" d="M133.8,18.7c-0.5,0-0.9-0.4-0.9-0.9v-4.4c0-0.5,0.4-0.9,0.9-0.9c0.5,0,0.9,0.4,0.9,0.9v4.4
		C134.7,18.3,134.3,18.7,133.8,18.7z"/>
	<g>
		<path class="st1" d="M134.5,15.5h-1.3c-0.3,0-0.6-0.3-0.6-0.6s0.3-0.6,0.6-0.6h1.3c0.3,0,0.6,0.3,0.6,0.6S134.8,15.5,134.5,15.5z"
			/>
	</g>
	<g>
		<path class="st1" d="M134.5,16.2h-1.3c-0.3,0-0.6-0.3-0.6-0.6s0.3-0.6,0.6-0.6h1.3c0.3,0,0.6,0.3,0.6,0.6S134.8,16.2,134.5,16.2z"
			/>
	</g>
	<g>
		<path class="st1" d="M134.5,17h-1.3c-0.3,0-0.6-0.3-0.6-0.6s0.3-0.6,0.6-0.6h1.3c0.3,0,0.6,0.3,0.6,0.6S134.8,17,134.5,17z"/>
	</g>
	<g>
		<path class="st1" d="M134.5,17.7h-1.3c-0.3,0-0.6-0.3-0.6-0.6s0.3-0.6,0.6-0.6h1.3c0.3,0,0.6,0.3,0.6,0.6S134.8,17.7,134.5,17.7z"
			/>
	</g>
</g>
<g>
	<path class="st1" d="M150,18.7c-0.5,0-0.9-0.4-0.9-0.9v-4.4c0-0.5,0.4-0.9,0.9-0.9s0.9,0.4,0.9,0.9v4.4
		C150.9,18.3,150.5,18.7,150,18.7z"/>
	<g>
		<path class="st1" d="M150.7,15.5h-1.3c-0.3,0-0.6-0.3-0.6-0.6s0.3-0.6,0.6-0.6h1.3c0.3,0,0.6,0.3,0.6,0.6S151,15.5,150.7,15.5z"/>
	</g>
	<g>
		<path class="st1" d="M150.7,16.2h-1.3c-0.3,0-0.6-0.3-0.6-0.6s0.3-0.6,0.6-0.6h1.3c0.3,0,0.6,0.3,0.6,0.6S151,16.2,150.7,16.2z"/>
	</g>
	<g>
		<path class="st1" d="M150.7,17h-1.3c-0.3,0-0.6-0.3-0.6-0.6s0.3-0.6,0.6-0.6h1.3c0.3,0,0.6,0.3,0.6,0.6S151,17,150.7,17z"/>
	</g>
	<g>
		<path class="st1" d="M150.7,17.7h-1.3c-0.3,0-0.6-0.3-0.6-0.6s0.3-0.6,0.6-0.6h1.3c0.3,0,0.6,0.3,0.6,0.6S151,17.7,150.7,17.7z"/>
	</g>
</g>
<g>
	<path class="st1" d="M2.6,65.7L2.6,65.7c0-1.8,1.4-3.4,3.3-3.4c2,0,3.3,1.6,3.3,3.4c0,0,0,0,0,0c0,1.8-1.4,3.4-3.3,3.4
		C3.9,69.1,2.6,67.5,2.6,65.7z M8.5,65.7L8.5,65.7c0-1.5-1.1-2.7-2.6-2.7s-2.6,1.2-2.6,2.7v0c0,1.5,1.1,2.7,2.6,2.7
		S8.5,67.2,8.5,65.7z"/>
	<path class="st1" d="M13.3,62.4H18v0.7h-4v2.3h3.5v0.7H14V69h-0.7V62.4z"/>
	<path class="st1" d="M26.8,65.7L26.8,65.7c0-1.8,1.3-3.4,3.3-3.4c1.1,0,1.8,0.3,2.4,0.9l-0.5,0.6c-0.5-0.4-1.1-0.7-2-0.7
		c-1.4,0-2.5,1.2-2.5,2.7v0c0,1.6,1,2.7,2.6,2.7c0.7,0,1.4-0.3,1.9-0.7v-1.6h-2v-0.7h2.7v2.6c-0.6,0.5-1.5,1-2.6,1
		C28.1,69.1,26.8,67.6,26.8,65.7z"/>
	<path class="st1" d="M36.9,62.4h2.8c0.8,0,1.4,0.2,1.9,0.7c0.3,0.3,0.5,0.8,0.5,1.3v0c0,1.1-0.7,1.7-1.8,1.9l2,2.7h-0.9l-1.9-2.5h0
		h-1.9V69h-0.7V62.4z M39.6,65.7c1,0,1.7-0.5,1.7-1.3v0c0-0.8-0.6-1.3-1.7-1.3h-2v2.7H39.6z"/>
	<path class="st1" d="M46.1,62.4h4.7v0.7h-4v2.2h3.6V66h-3.6v2.3h4V69h-4.8V62.4z"/>
	<path class="st1" d="M57.2,62.4h0.7l3,6.6h-0.8l-0.8-1.7h-3.6L55,69h-0.8L57.2,62.4z M59.1,66.6l-1.5-3.3l-1.5,3.3H59.1z"/>
	<path class="st1" d="M65.5,63.1h-2.2v-0.7h5.1v0.7h-2.2V69h-0.7V63.1z"/>
	<path class="st1" d="M72.3,62.4h4.7v0.7h-4v2.2h3.6V66h-3.6v2.3h4V69h-4.8V62.4z"/>
	<path class="st1" d="M81,62.4h2.8c0.8,0,1.4,0.2,1.9,0.7c0.3,0.3,0.5,0.8,0.5,1.3v0c0,1.1-0.7,1.7-1.8,1.9l2,2.7h-0.9l-1.9-2.5h0
		h-1.9V69H81V62.4z M83.8,65.7c1,0,1.7-0.5,1.7-1.3v0c0-0.8-0.6-1.3-1.7-1.3h-2v2.7H83.8z"/>
	<path class="st1" d="M95.5,62.4H98c1.5,0,2.5,0.8,2.5,2.1v0c0,1.4-1.2,2.1-2.6,2.1h-1.6V69h-0.7V62.4z M97.9,66
		c1.1,0,1.8-0.6,1.8-1.4v0c0-0.9-0.7-1.4-1.8-1.4h-1.7V66H97.9z"/>
	<path class="st1" d="M104.3,62.4h0.7V69h-0.7V62.4z"/>
	<path class="st1" d="M111.1,63.1h-2.2v-0.7h5.1v0.7h-2.2V69h-0.7V63.1z"/>
	<path class="st1" d="M119.6,63.1h-2.2v-0.7h5.1v0.7h-2.2V69h-0.7V63.1z"/>
	<path class="st1" d="M125.8,68l0.5-0.5c0.7,0.6,1.3,0.9,2.2,0.9c0.9,0,1.5-0.5,1.5-1.1v0c0-0.6-0.3-1-1.7-1.2
		c-1.5-0.3-2.2-0.8-2.2-1.9v0c0-1,0.9-1.8,2.2-1.8c1,0,1.6,0.3,2.3,0.8l-0.4,0.6c-0.6-0.5-1.2-0.7-1.9-0.7c-0.9,0-1.4,0.5-1.4,1.1v0
		c0,0.6,0.3,1,1.8,1.3c1.5,0.3,2.1,0.9,2.1,1.9v0c0,1.1-0.9,1.9-2.2,1.9C127.5,69,126.6,68.7,125.8,68z"/>
	<path class="st1" d="M134.7,62.4h2.8c0.7,0,1.3,0.2,1.7,0.6c0.3,0.3,0.4,0.6,0.4,1v0c0,0.9-0.5,1.3-1,1.5c0.8,0.2,1.4,0.7,1.4,1.6
		v0c0,1.1-0.9,1.8-2.4,1.8h-2.9V62.4z M137.4,65.3c0.9,0,1.5-0.4,1.5-1.2v0c0-0.6-0.5-1.1-1.4-1.1h-2v2.3H137.4z M137.6,68.3
		c1,0,1.6-0.4,1.6-1.2v0c0-0.7-0.6-1.1-1.7-1.1h-2.1v2.3H137.6z"/>
	<path class="st1" d="M143.8,66.2v-3.8h0.7v3.8c0,1.4,0.7,2.2,2,2.2c1.2,0,2-0.7,2-2.2v-3.8h0.7v3.8c0,1.9-1.1,2.9-2.7,2.9
		C144.9,69.1,143.8,68.1,143.8,66.2z"/>
	<path class="st1" d="M153.5,62.4h2.8c0.8,0,1.4,0.2,1.9,0.7c0.3,0.3,0.5,0.8,0.5,1.3v0c0,1.1-0.7,1.7-1.8,1.9l2,2.7H158l-1.9-2.5h0
		h-1.9V69h-0.7V62.4z M156.2,65.7c1,0,1.7-0.5,1.7-1.3v0c0-0.8-0.6-1.3-1.7-1.3h-2v2.7H156.2z"/>
	<path class="st1" d="M162.4,65.7L162.4,65.7c0-1.8,1.3-3.4,3.3-3.4c1.1,0,1.8,0.3,2.4,0.9l-0.5,0.6c-0.5-0.4-1.1-0.7-2-0.7
		c-1.4,0-2.5,1.2-2.5,2.7v0c0,1.6,1,2.7,2.6,2.7c0.7,0,1.4-0.3,1.9-0.7v-1.6h-2v-0.7h2.7v2.6c-0.6,0.5-1.5,1-2.6,1
		C163.7,69.1,162.4,67.6,162.4,65.7z"/>
	<path class="st1" d="M172.5,62.4h0.7v2.9h3.8v-2.9h0.7V69H177V66h-3.8V69h-0.7V62.4z"/>
</g>
</svg>
