<?xml version="1.0" encoding="utf-8"?>
<!-- Generator: Adobe Illustrator 21.1.0, SVG Export Plug-In . SVG Version: 6.00 Build 0)  -->
<svg version="1.1" id="Layer_1" xmlns="http://www.w3.org/2000/svg" xmlns:xlink="http://www.w3.org/1999/xlink" x="0px" y="0px"
	 viewBox="0 0 475 186" style="enable-background:new 0 0 475 186;" xml:space="preserve">
<style type="text/css">
	.Arched_x0020_Green{fill:url(#SVGID_1_);stroke:#FFFFFF;stroke-width:0.25;stroke-miterlimit:1;}
	.st0{fill:#1B75BC;}
	.st1{fill:#FFFFFF;}
	.st2{fill:none;stroke:#1B75BC;stroke-width:1.9209;}
	.st3{fill:none;}
	.st4{fill:none;stroke:#1B75BC;stroke-width:1.9113;}
	.st5{clip-path:url(#SVGID_3_);fill:#1B75BC;}
	.st6{clip-path:url(#SVGID_3_);fill:none;}
	.st7{clip-path:url(#SVGID_3_);fill:#FFFFFF;}
	.st8{clip-path:url(#SVGID_5_);fill:#1B75BC;}
	.st9{clip-path:url(#SVGID_5_);}
	.st10{fill:none;stroke:#000000;stroke-width:1.01;stroke-linecap:round;stroke-linejoin:round;stroke-miterlimit:10;}
	.st11{fill:#FFFFFF;stroke:#FFFFFF;stroke-width:1.01;}
	.st12{fill:#1B72BA;}
	.st13{clip-path:url(#SVGID_7_);fill:#1B75BC;}
	.st14{clip-path:url(#SVGID_7_);}
	.st15{fill:#FFFFFF;stroke:#1C74BB;stroke-width:2.02;stroke-miterlimit:10;}
	.st16{fill:#FFF200;stroke:#FFFFFF;stroke-width:2.02;stroke-miterlimit:10;}
	.st17{clip-path:url(#SVGID_9_);fill:#1B75BC;}
	.st18{clip-path:url(#SVGID_9_);}
	.st19{fill:#1D75BC;}
	.st20{clip-path:url(#SVGID_11_);fill:#1B75BC;}
	.st21{clip-path:url(#SVGID_11_);}
	.st22{fill:none;stroke:#FFFFFF;stroke-width:3.03;stroke-linecap:round;stroke-linejoin:round;}
	.st23{fill:none;stroke:#FFFFFF;stroke-width:2.02;stroke-linecap:round;stroke-linejoin:round;}
	.st24{font-family:'Gotham-Book';}
	.st25{font-size:24px;}
	.st26{letter-spacing:6;}
</style>
<linearGradient id="SVGID_1_" gradientUnits="userSpaceOnUse" x1="-151" y1="396" x2="-150.2929" y2="395.2929">
	<stop  offset="0" style="stop-color:#20AC4B"/>
	<stop  offset="0.9831" style="stop-color:#19361A"/>
</linearGradient>
<g>
	<path class="st0" d="M46,114.9H20.1c1,4.8,4.4,7.3,9.1,7.3c3.5,0,6.1-1.1,9-3.8l6,5.3c-3.5,4.3-8.5,6.9-15.2,6.9
		c-11.2,0-19.4-7.8-19.4-19.2v-0.1C9.6,100.7,17.2,92,28,92c12.4,0,18.1,9.6,18.1,20.2v0.1C46.2,113.3,46.1,114,46,114.9z M28,100.4
		c-4.4,0-7.2,3.1-8.1,7.9h15.9C35.3,103.6,32.5,100.4,28,100.4z"/>
	<path class="st0" d="M74.1,129.9v-20.8c0-5-2.4-7.6-6.4-7.6s-6.6,2.6-6.6,7.6v20.8H50.5V92.7h10.6v5.3c2.4-3.1,5.6-6,10.9-6
		c8,0,12.6,5.3,12.6,13.8v24.1H74.1z"/>
	<path class="st0" d="M124.9,114.9H99c1,4.8,4.4,7.3,9.1,7.3c3.5,0,6.1-1.1,9-3.8l6,5.3c-3.5,4.3-8.5,6.9-15.2,6.9
		c-11.2,0-19.4-7.8-19.4-19.2v-0.1c0-10.6,7.6-19.4,18.4-19.4c12.4,0,18.1,9.6,18.1,20.2v0.1C125,113.3,124.9,114,124.9,114.9z
		 M106.9,100.4c-4.4,0-7.2,3.1-8.1,7.9h15.9C114.1,103.6,111.3,100.4,106.9,100.4z"/>
	<path class="st0" d="M151.2,103c-7,0-11.3,4.2-11.3,13.1v13.7h-10.6V92.7h10.6v7.5c2.2-5.1,5.6-8.5,11.9-8.2v11H151.2z"/>
	<path class="st0" d="M170.9,141.1c-6,0-11.7-1.4-16.5-3.9l3.6-7.9c3.8,2.2,7.6,3.4,12.6,3.4c7.2,0,10.6-3.5,10.6-10.1v-1.8
		c-3.1,3.7-6.5,6-12.1,6c-8.7,0-16.5-6.3-16.5-17.4v-0.1c0-11.1,8-17.4,16.5-17.4c5.8,0,9.2,2.4,12,5.6v-4.9h10.6v28.8
		C191.6,135.5,184.7,141.1,170.9,141.1z M181.2,109.3c0-5.1-4-8.6-9.1-8.6c-5.1,0-9,3.5-9,8.6v0.1c0,5.1,3.9,8.6,9,8.6
		c5.1,0,9.1-3.5,9.1-8.6V109.3z"/>
	<path class="st0" d="M218.7,130.8c-2.8,7.6-5.9,10.4-12.2,10.4c-3.8,0-6.7-1-9.4-2.6l3.5-7.6c1.4,0.8,3.1,1.5,4.5,1.5
		c1.8,0,2.8-0.6,3.7-2.4l-14.6-37.3h11.2l8.5,25.3l8.1-25.3h11L218.7,130.8z"/>
	<path class="st1" d="M267,129.9V124c-2.4,3.4-6.8,6.7-13.5,6.7c-6.6,0-13.7-3.7-13.7-11.1v-0.1c0-7.4,6.3-11.5,15.5-11.5
		c4.9,0,8.3,0.6,11.7,1.5v-1.5c0-7.2-4.4-10.8-11.7-10.8c-4.3,0-7.8,1.2-11.1,2.8l-1.2-3c3.9-1.8,7.7-3.1,12.6-3.1
		c9.1,0,14.8,4.7,14.8,13.9v22.1H267z M267.1,112.6c-3-0.8-6.9-1.6-12-1.6c-7.5,0-11.7,3.3-11.7,8.3v0.1c0,5.1,4.9,8.1,10.3,8.1
		c7.2,0,13.4-4.4,13.4-10.9V112.6z"/>
	<path class="st1" d="M279.6,129.9V79.2h3.4v50.7H279.6z"/>
	<path class="st1" d="M293.4,129.9V79.2h3.4v50.7H293.4z"/>
	<path class="st1" d="M306.8,85.2v-4.7h4.2v4.7H306.8z M307.2,129.9V94.5h3.4v35.4H307.2z"/>
	<path class="st1" d="M344.8,129.9V124c-2.4,3.4-6.8,6.7-13.5,6.7c-6.6,0-13.7-3.7-13.7-11.1v-0.1c0-7.4,6.3-11.5,15.5-11.5
		c4.9,0,8.3,0.6,11.7,1.5v-1.5c0-7.2-4.4-10.8-11.7-10.8c-4.3,0-7.8,1.2-11.1,2.8l-1.2-3c3.9-1.8,7.7-3.1,12.6-3.1
		c9.1,0,14.8,4.7,14.8,13.9v22.1H344.8z M344.9,112.6c-3-0.8-6.9-1.6-12-1.6c-7.5,0-11.7,3.3-11.7,8.3v0.1c0,5.1,4.9,8.1,10.3,8.1
		c7.2,0,13.4-4.4,13.4-10.9V112.6z"/>
	<path class="st1" d="M383.8,129.9v-21c0-7.3-4.1-12.1-11.2-12.1c-6.9,0-12.3,5.3-12.3,12.6v20.5h-3.4V94.5h3.4v6.6
		c2.4-4.2,6.3-7.4,12.8-7.4c9,0,14.2,6.1,14.2,14.6v21.7H383.8z"/>
	<path class="st1" d="M411.6,130.7c-10.2,0-18-8.5-18-18.4v-0.1c0-9.9,7.9-18.5,18-18.5c6.7,0,10.8,3.1,14.2,6.5l-2.4,2.5
		c-3.1-3.1-6.5-5.8-11.8-5.8c-8.1,0-14.3,6.7-14.3,15.2v0.1c0,8.5,6.5,15.3,14.6,15.3c5,0,8.9-2.6,11.9-5.9l2.4,2.1
		C422.4,127.8,418.1,130.7,411.6,130.7z"/>
	<path class="st1" d="M446.2,127.5c5.5,0,9.2-2.4,12.1-5.6l2.4,2.1c-3.6,3.9-7.8,6.7-14.6,6.7c-9.3,0-17.4-7.4-17.4-18.5v-0.1
		c0-10.3,7.2-18.5,16.8-18.5c9.9,0,16.2,8.1,16.2,18.5v0.1c0,0.5,0,0.7-0.1,1.2h-29.4C432.9,122.4,439.2,127.5,446.2,127.5z
		 M458,110.5c-0.5-7.1-4.6-13.7-12.7-13.7c-7,0-12.4,5.9-13.1,13.7H458z"/>
</g>
<g>
	<path class="st2" d="M170.6,70.7c-16.6,0-30.1-13.5-30.1-30.1c0-16.6,13.5-30.1,30.1-30.1c16.6,0,30.1,13.5,30.1,30.1
		C200.7,57.1,187.2,70.7,170.6,70.7L170.6,70.7z"/>
	<circle class="st0" cx="170.6" cy="40.5" r="28.1"/>
	<circle class="st3" cx="170.6" cy="40.5" r="28.1"/>
	<g>
		<g>
			<path class="st1" d="M170.6,11.8c-5.2,0-9.4,12.7-9.4,28.4c0,15.7,4.2,28.4,9.4,28.4c5.2,0,9.4-12.7,9.4-28.4
				C180,24.6,175.8,11.8,170.6,11.8z M170.6,68.3c-4.7,0-8.4-12.6-8.4-28.1c0-15.5,3.8-28.1,8.4-28.1c4.6,0,8.4,12.6,8.4,28.1
				C179,55.8,175.2,68.3,170.6,68.3z"/>
			<path class="st1" d="M142,40.3c0,5.1,12.8,9.3,28.6,9.3c15.8,0,28.6-4.2,28.6-9.3c0-5.1-12.8-9.3-28.6-9.3
				C154.8,31,142,35.1,142,40.3z M198.8,40.3c0,4.6-12.6,8.4-28.2,8.4c-15.6,0-28.2-3.7-28.2-8.4c0-4.6,12.6-8.4,28.2-8.4
				C186.2,31.9,198.8,35.7,198.8,40.3z"/>
			<path class="st1" d="M150.3,20.2c-3.7,3.6,2.4,15.6,13.6,26.7C175.1,58,187.2,64,190.8,60.4c3.7-3.6-2.4-15.6-13.6-26.7
				C166,22.6,154,16.5,150.3,20.2z M190.5,60.1c-3.3,3.3-14.9-3-25.9-13.9c-11-11-17.3-22.5-14-25.8c3.3-3.3,14.9,3,25.9,13.9
				C187.6,45.3,193.8,56.9,190.5,60.1z"/>
			<path class="st1" d="M150.3,60.4C154,64,166,58,177.2,46.9c11.2-11.1,17.3-23.1,13.6-26.7c-3.7-3.6-15.7,2.4-26.9,13.5
				C152.8,44.8,146.7,56.7,150.3,60.4z M190.5,20.4c3.3,3.3-3,14.8-14,25.8c-11,11-22.6,17.2-25.9,13.9c-3.3-3.3,3-14.8,14-25.8
				C175.7,23.4,187.3,17.2,190.5,20.4z"/>
			<ellipse class="st1" cx="170.4" cy="40.4" rx="4" ry="4"/>
		</g>
		<path class="st0" d="M170.7,43.4c-1.9,0-3.4-1.5-3.4-3.4c0-0.9,0.3-1.6,0.9-2.2c-0.7,0.6-1.2,1.5-1.2,2.5c0,1.9,1.5,3.4,3.4,3.4
			c1,0,1.9-0.5,2.5-1.2C172.3,43.1,171.6,43.4,170.7,43.4z"/>
		<ellipse class="st1" cx="182.9" cy="20.4" rx="2.2" ry="2.2"/>
		<path class="st0" d="M183.1,22.1c-1,0-1.9-0.8-1.9-1.8c0-0.5,0.2-0.9,0.5-1.2c-0.4,0.3-0.6,0.8-0.6,1.4c0,1,0.8,1.8,1.9,1.8
			c0.6,0,1-0.2,1.4-0.6C184,21.9,183.5,22.1,183.1,22.1z"/>
		<g>
			<ellipse class="st1" cx="150.3" cy="27.1" rx="2.2" ry="2.2"/>
			<path class="st0" d="M150.5,28.8c-1,0-1.9-0.8-1.9-1.8c0-0.5,0.2-0.9,0.5-1.2c-0.4,0.3-0.6,0.8-0.6,1.4c0,1,0.8,1.8,1.9,1.8
				c0.6,0,1-0.2,1.4-0.6C151.4,28.6,151,28.8,150.5,28.8z"/>
		</g>
		<g>
			<ellipse class="st1" cx="165.2" cy="62.5" rx="2.2" ry="2.2"/>
			<path class="st0" d="M165.3,64.1c-1,0-1.9-0.8-1.9-1.8c0-0.5,0.2-0.9,0.5-1.2c-0.4,0.3-0.6,0.8-0.6,1.4c0,1,0.8,1.8,1.9,1.8
				c0.6,0,1-0.2,1.4-0.6C166.2,63.9,165.8,64.1,165.3,64.1z"/>
		</g>
	</g>
</g>
<g>
	<path class="st4" d="M300.2,70.6c-16.5,0-30-13.4-30-30c0-16.5,13.4-30,30-30c16.5,0,30,13.4,30,30
		C330.2,57.2,316.7,70.6,300.2,70.6L300.2,70.6z"/>
	<g>
		<defs>
			<circle id="SVGID_2_" cx="300.1" cy="40.7" r="28"/>
		</defs>
		<clipPath id="SVGID_3_">
			<use xlink:href="#SVGID_2_"  style="overflow:visible;"/>
		</clipPath>
		<circle class="st5" cx="300.2" cy="40.7" r="28"/>
		<circle class="st6" cx="300.2" cy="40.7" r="28"/>
		<path class="st7" d="M282.1,95.1h7.3V63.7h-7.3V95.1z M291.3,36.7c-1.1-1.1-1.9-2.9-1.9-5c0-2,0.7-3.8,1.9-5
			c-10.2,0.4-18,2.4-18,5C273.3,34.2,281.1,36.3,291.3,36.7z M291.9,27.4c-1,1-1.6,2.5-1.6,4.3c0,1.4,0.4,2.7,1.1,3.7l1.2-1.7
			c-0.3-0.6-0.4-1.4-0.4-2.1c0-0.8,0.2-1.6,0.5-2.3L291.9,27.4z M297.5,28.8c-0.6-1.2-1.6-2.1-2.7-2.3l0.6,1.6
			C296.1,28.2,296.8,28.5,297.5,28.8z M294.1,37C294.1,37,294.2,37,294.1,37c1.5,0,2.7-1,3.4-2.5c-0.7,0.3-1.5,0.6-2.2,0.8L294.1,37
			z M288.6,39.2v-1.4c-1.7-0.1-3.5-0.3-5.2-0.5v9.4L288.6,39.2z M283.3,58.6v3.9h5.2v-9.1C287,55.1,285.3,56.8,283.3,58.6z
			 M321.4,33.4c-6.1-2.8-10-3.9-16.7-4.8l-2.5,3.7l-2.9-0.5c0-0.1,0-0.1,0-0.1c0-1.2-1.8-2.2-4.6-3L282.3-6.3
			c-0.6,5.2-0.6,8.2,0,13.4c0.8,7.3,1.9,11.4,4.9,18.1l4.8,0.3l1.5,3.9c-0.3,0.7-0.6,1.4-0.6,2.3c0,0.8,0.2,1.5,0.5,2.2l-23.5,33.2
			c5-2.7,7.7-4.6,12-8.4c6-5.3,9-8.8,13.1-15.7l-2.8-4.5l2.6-3.9c1.7-0.4,3-1,3.8-1.6l33.5,6.8C328.2,36.9,325.8,35.4,321.4,33.4z"
			/>
		<path class="st7" d="M316.3,45c-0.4-0.9-1.1-1.5-1.9-1.7l0.4,1.1C315.3,44.6,315.8,44.8,316.3,45z M312.4,44
			c-0.7,0.7-1.1,1.8-1.1,3c0,1,0.3,1.9,0.8,2.6l0.8-1.2c-0.2-0.5-0.3-1-0.3-1.5c0-0.6,0.1-1.1,0.3-1.6L312.4,44z M308.5,28.4
			l-2.9-8.2c-0.3,3-0.4,5-0.2,7.6C306.5,27.9,307.5,28.2,308.5,28.4z M311.9,50.5c-0.8-0.8-1.3-2.1-1.3-3.5c0-1.4,0.5-2.7,1.3-3.5
			c-7.2,0.3-12.7,1.7-12.7,3.5C299.2,48.8,304.7,50.3,311.9,50.5z M313.9,50.8C314,50.8,314,50.8,313.9,50.8c1,0,1.9-0.7,2.4-1.8
			c-0.5,0.2-1,0.4-1.6,0.6L313.9,50.8z M333.3,48.2c-4.3-2-7-2.8-11.8-3.4l-1.8,2.6l-2-0.4c0,0,0-0.1,0-0.1c0-0.8-1.3-1.6-3.3-2.1
			l-3.1-8.8l-4.8-1c0.6,2.4,1.3,4.5,2.6,7.3l3.4,0.2l1.1,2.8c-0.2,0.5-0.4,1-0.4,1.6c0,0.6,0.1,1.1,0.4,1.5L296.8,72
			c3.5-1.9,5.4-3.3,8.5-5.9c4.2-3.7,6.4-6.3,9.3-11.1l-2-3.2l1.8-2.7c1.2-0.3,2.1-0.7,2.7-1.2l23.7,4.8
			C338,50.7,336.4,49.7,333.3,48.2z M306.3,66.1v2.8h3.7v-6.4C308.9,63.6,307.7,64.8,306.3,66.1z M310,52.3v-1
			c-1.2-0.1-2.5-0.2-3.7-0.4v6.6L310,52.3z M305.5,89.7h5.1v-20h-5.1V89.7z"/>
	</g>
</g>
<g>
	<path class="st2" d="M39.8,70.6c-16.6,0-30.1-13.5-30.1-30.1c0-16.6,13.5-30.1,30.1-30.1c16.6,0,30.1,13.5,30.1,30.1
		C69.9,57.1,56.4,70.6,39.8,70.6L39.8,70.6z"/>
	<circle class="st0" cx="39.8" cy="40.5" r="28.1"/>
	<circle class="st3" cx="39.8" cy="40.5" r="28.1"/>
	<g>
		<path class="st1" d="M24.5,33.1L24.5,33.1c0.1,0,0.2,0,0.3,0c0,0,0.1,0,0.1,0l0,0c0,0,0.1,0,0.1,0l0,0c0.1,0,0.2,0,0.2,0.1l0.1,0
			c0.1,0,0.1,0,0.2,0.1l0.1,0c0.1,0,0.2,0.1,0.3,0.1l0,0l0,0l0.1,0l0,0c0,0,0.1,0,0.1,0.1l0,0l0.1,0l0,0l0,0c0,0,0.1,0,0.1,0
			c0,0,0,0,0.1,0l0,0l0,0l0.1,0c0,0,0.1,0,0.1,0c0,0,0,0,0.1,0l0,0l0,0l0.1,0l0,0c0,0,0,0,0,0l0.4-0.1l0.3-0.1c0.1,0,0.1,0,0.2,0
			c0,0,0.1,0,0.1,0l0,0c0.1,0,0.1,0,0.1,0c0,0,0,0,0.1,0c0,0,0.1,0,0.1,0c0.1,0,0.1,0,0.2,0c0,0,0.1,0,0.1,0c0.1,0,0.1,0,0.2,0
			c0.1,0,0.1,0,0.2,0c0,0,0,0,0.1,0c0.1,0,0.2,0,0.3,0c0.1,0,0.1,0,0.2,0l0.1,0c0,0,0.1,0,0.2,0.1l0,0l0,0l0,0
			c0.1,0,0.1,0.1,0.2,0.1l0.1,0l0,0c0,0,0.1,0,0.1,0.1l0,0l0,0l0.1,0c0,0,0.1,0,0.1,0l0.1,0l0.1,0.1l0,0l0.1,0l0.1,0l0,0l0,0l0,0
			l0.1,0l0,0c0.1,0,0.1,0.1,0.2,0.1c0.1,0.1,0.1,0.1,0.2,0.2l0.1,0l0.1,0c0,0,0.1,0.1,0.1,0.1l0,0l0,0c0,0,0,0,0.1,0.1l0,0l0,0
			c0,0,0.1,0,0.1,0.1l0,0l0,0l0.1,0.1l0,0l0,0c0,0,0,0,0.1,0.1l0,0l0,0c0,0.1,0.1,0.1,0.1,0.1l0,0l0.1,0.1l0,0l0,0
			c0,0.1,0.1,0.1,0.1,0.2c0,0,0.1,0.1,0.1,0.1c0.1,0.1,0.2,0.2,0.2,0.3l0,0.1c0.1,0.1,0.1,0.2,0.2,0.3l0,0l0,0
			c0.1,0.1,0.1,0.2,0.2,0.3c0,0,0,0.1,0,0.1l0,0l0,0c0.1,0.1,0.1,0.2,0.2,0.4c0,0,0,0,0,0l0,0c0.1,0.2,0.2,0.3,0.3,0.5l0,0l0,0
			c0.1,0.2,0.2,0.4,0.3,0.6l0,0l0,0c0.1,0.2,0.2,0.4,0.2,0.6l0,0.1c0,0.1,0.1,0.3,0.1,0.4l0,0.1l0,0.1c0,0.1,0,0.1,0,0.2l0,0.1
			l0,0.1l0,0l0,0l0,0.1l0,0l0,0.1l0,0.1l0,0.1l0,0.1l0,0.1l0,0.1l0,0c0,0,0,0.1,0,0.1l0,0l0,0l0,0.1l0,0l0,0.1l0,0.1l0,0.1l0,0.1
			l0,0.1l0,0.1c0,0.1,0,0.2,0,0.3l0,0.1l0,0l0,0.1l0,0.1l0,0l0,0l0,0.2c0,0.1,0,0.2,0,0.3c0,0,0,0,0,0.1v0c0,0,0,0,0,0l0,0.1V43
			c0,0.1,0,0.2,0,0.3v0l0,0l0,0c0,0.1,0,0.1,0,0.2c0,0.1,0,0.2,0,0.3l0,0l0,0c0,0.1,0,0.2,0,0.2c0,0.1,0,0.1,0,0.2l0,0l0,0
			c0,0.1,0,0.2-0.1,0.3c0,0,0,0.1,0,0.1l0,0l0,0.1c0,0,0,0.1,0,0.1c0,0.1,0,0.2-0.1,0.3l0,0.1l0,0.1l0,0c0,0,0,0.1,0,0.1
			c0,0.1,0,0.1-0.1,0.2l0,0l0,0.1l0,0c0,0.1-0.1,0.2-0.1,0.3c0,0,0,0.1-0.1,0.1l0,0l0,0c0,0.1-0.1,0.1-0.1,0.2
			c-0.1,0.2-0.2,0.3-0.3,0.4c-0.1,0.1-0.2,0.2-0.2,0.3l-0.1,0.1l0,0c-0.1,0.1-0.1,0.1-0.2,0.2l0,0L33,47.5c-0.1,0.1-0.2,0.2-0.3,0.2
			c-0.1,0.1-0.2,0.1-0.3,0.2c0,0-0.1,0-0.1,0.1c-0.1,0-0.1,0.1-0.2,0.1c0,0-0.1,0-0.1,0c-0.1,0-0.2,0.1-0.3,0.1l-0.3,0.1l-0.4,0.1
			c0,0,0,0,0,0.1c0,0.1,0,0.1-0.1,0.1l0,0l0,0.1c0,0.1-0.1,0.1-0.1,0.2l0,0l0,0c-0.1,0.2-0.2,0.3-0.3,0.5c-0.1,0.1-0.2,0.2-0.3,0.4
			c0,0,0,0-0.1,0.1l0,0C30,50,30,50.1,29.9,50.1l0,0l-0.1,0.1c-0.1,0.1-0.2,0.2-0.3,0.3c-0.1,0.1-0.2,0.2-0.4,0.2c0,0-0.1,0-0.1,0.1
			c-0.1,0-0.2,0.1-0.3,0.1c0,0,0,0,0,0c12.3,4.6,37.6-0.9,37.1-11.4C65.5,29.6,60,21.4,51,19C41.8,16.2,29.8,20.1,24.5,33.1
			C24.5,33.1,24.5,33.1,24.5,33.1L24.5,33.1z M66.3,37.7c0.1,0.6,0.1,1.2,0.1,1.8c0.4,7.8-12.1,12.8-23.9,13.6
			c-5.9,0.4-11.1-0.3-14.8-1.9l-0.5,0.1l-1.9,0.5h0L25,52l0,0c-0.2,0-0.3,0.1-0.5,0.1c-0.5,0-0.9,0-1.4-0.2
			c-2.2-0.6-4.2-2.8-5.4-5.7c-3.4,4.6,0.1,8.4,2.2,10.1c8.8,6.4,16,1.8,23.9,0.6C62.8,54,73.6,43.8,66.3,37.7z"/>
		<path class="st1" d="M34.1,42C34.1,42,34.1,41.9,34.1,42c0-0.1,0-0.1,0-0.1c0-0.1,0-0.2,0-0.3c0,0,0,0,0,0c0,0,0-0.1,0-0.1
			c0-0.1,0-0.1,0-0.2c0,0,0,0,0,0c0,0,0-0.1,0-0.1c0,0,0-0.1,0-0.1c0,0,0-0.1,0-0.1c0,0,0-0.1,0-0.1c0,0,0-0.1,0-0.1
			c0,0,0-0.1,0-0.1c0,0,0-0.1,0-0.1c0,0,0,0,0-0.1c0,0,0-0.1,0-0.1c0,0,0-0.1,0-0.1c0,0,0,0,0,0c0,0,0-0.1,0-0.1
			c0-0.1,0-0.1-0.1-0.2c0,0,0,0,0-0.1c0,0,0,0,0-0.1c0-0.1-0.1-0.2-0.1-0.4c0,0,0,0,0,0c0,0,0,0,0,0c-0.1-0.2-0.1-0.4-0.2-0.6
			c0,0,0,0,0,0c-0.1-0.2-0.2-0.4-0.3-0.6c0,0,0,0,0,0c0,0,0,0,0,0c-0.1-0.2-0.2-0.3-0.2-0.5c0,0,0,0,0,0c0,0,0,0,0,0
			c-0.1-0.1-0.1-0.2-0.2-0.3c0,0,0,0,0,0c0,0,0,0,0-0.1c-0.1-0.1-0.1-0.2-0.2-0.2c0,0,0,0,0-0.1c0,0,0,0,0,0
			c-0.1-0.1-0.1-0.1-0.2-0.2c0,0,0,0,0-0.1c0,0,0,0,0,0c-0.1-0.1-0.1-0.2-0.2-0.3c0,0,0,0,0,0c0,0,0,0-0.1-0.1c0,0-0.1-0.1-0.1-0.1
			c0,0,0,0,0,0c0,0,0-0.1-0.1-0.1c0,0-0.1-0.1-0.1-0.1c0,0,0,0,0,0c0,0-0.1,0-0.1-0.1c0,0-0.1-0.1-0.1-0.1c0,0,0,0,0,0
			c0,0-0.1-0.1-0.1-0.1c0,0-0.1,0-0.1-0.1c0,0,0,0,0,0c0,0-0.1-0.1-0.1-0.1c0,0,0,0,0,0c0,0,0,0,0,0c-0.1-0.1-0.1-0.1-0.2-0.1
			c0,0,0,0,0,0l0,0c-0.1,0-0.1-0.1-0.2-0.1c0,0,0,0,0,0c0,0,0,0-0.1,0c0,0-0.1,0-0.1-0.1c0,0,0,0,0,0c0,0,0,0-0.1,0c0,0,0,0-0.1,0
			c0,0-0.1,0-0.1,0c0,0,0,0-0.1,0c0,0,0,0,0,0c0,0-0.1,0-0.1-0.1c0,0,0,0,0,0c0,0,0,0,0,0c-0.1,0-0.1,0-0.2-0.1c0,0,0,0,0,0
			c0,0,0,0,0,0c0,0-0.1,0-0.1,0c0,0,0,0,0,0c-0.1,0-0.1,0-0.2,0c-0.1,0-0.1,0-0.2,0c0,0,0,0,0,0c0,0,0,0,0,0c-0.1,0-0.1,0-0.2,0
			c-0.1,0-0.1,0-0.2,0c0,0,0,0,0,0c0,0,0,0,0,0c-0.1,0-0.2,0-0.2,0c0,0,0,0-0.1,0c0,0-0.1,0-0.1,0c0,0-0.1,0-0.1,0
			c-0.1,0-0.1,0-0.2,0l-0.3,0.1h0l0,0c0,0,0.1,0.1,0.1,0.1c0,0,0,0,0,0c0,0,0.1,0.1,0.1,0.1l0,0c0,0,0.1,0.1,0.1,0.1l0,0
			c0,0,0.1,0.1,0.1,0.1l0,0l0,0l0.1,0.1l0,0l0,0l0.1,0.1l0,0l0,0l0.1,0.1l0,0.1l0,0c0,0.1,0.1,0.1,0.1,0.2l0,0l0,0l0,0.1
			c0.1,0.1,0.2,0.2,0.3,0.4l0,0.1c0.1,0.1,0.2,0.2,0.2,0.3l0,0l0,0l0,0l0,0c0.1,0.1,0.1,0.2,0.2,0.3l0,0.1l0,0l0,0
			c0.1,0.1,0.2,0.3,0.3,0.5l0,0l0,0c0.1,0.2,0.2,0.4,0.3,0.6c0.1,0.3,0.2,0.5,0.4,0.8l0,0l0,0c0.1,0.3,0.2,0.5,0.3,0.8l0,0.1
			c0.1,0.2,0.1,0.3,0.2,0.5l0,0l0,0c0,0,0,0,0,0.1c0,0.1,0.1,0.2,0.1,0.3l0,0l0,0.1l0,0l0,0c0,0.1,0,0.1,0,0.2l0,0l0,0.1l0,0.1
			l0,0.1l0,0.1l0,0l0,0.1l0,0l0,0.1l0,0.2l0,0l0,0.1l0,0.1l0,0.1l0,0.2l0,0.1c0,0.1,0,0.1,0,0.2l0,0l0,0.1l0,0.1c0,0.1,0,0.3,0,0.4
			l0,0.1l0,0l0,0c0,0.1,0,0.1,0,0.2l0,0.1c0,0.1,0,0.2,0,0.2c0,0.1,0,0.2,0,0.4v0l0,0l0,0l0,0.1c0,0.1,0,0.1,0,0.2
			c0,0.1,0,0.2,0,0.4l0,0l0,0l0,0.1c0,0.1,0,0.2,0,0.3c0,0.1,0,0.2,0,0.3l0,0.1c0,0.1,0,0.2,0,0.3c0,0.1,0,0.2,0,0.3c0,0,0,0,0,0.1
			c0,0.1,0,0.2-0.1,0.3l0,0.1l0,0.1l0,0l0,0.1l0,0.1c0,0.1-0.1,0.2-0.1,0.3l0,0.1l0,0.1l0,0.1c0,0,0,0.1,0,0.1c0,0,0,0,0,0.1
			l0.3-0.1c0.1,0,0.2-0.1,0.3-0.1c0,0,0.1,0,0.1,0c0.1,0,0.1-0.1,0.2-0.1c0,0,0.1,0,0.1,0c0.1-0.1,0.2-0.1,0.2-0.2c0,0,0,0,0,0
			c0.1-0.1,0.2-0.1,0.2-0.2c0,0,0,0,0.1-0.1c0.1-0.1,0.1-0.1,0.2-0.2c0,0,0,0,0.1-0.1c0.1-0.1,0.1-0.2,0.2-0.2c0,0,0,0,0,0
			c0.1-0.1,0.1-0.2,0.2-0.3c0,0,0,0,0,0c0-0.1,0.1-0.1,0.1-0.2c0,0,0-0.1,0.1-0.1c0,0,0,0,0,0c0-0.1,0.1-0.2,0.1-0.3c0,0,0,0,0,0
			c0,0,0,0,0-0.1c0-0.1,0-0.1,0.1-0.2c0,0,0-0.1,0-0.1c0,0,0-0.1,0-0.1c0,0,0,0,0-0.1c0-0.1,0-0.2,0.1-0.3c0,0,0,0,0,0
			c0,0,0-0.1,0-0.1c0,0,0-0.1,0-0.1c0-0.1,0-0.2,0-0.3l0,0c0,0,0,0,0,0c0-0.1,0-0.1,0-0.2c0-0.1,0-0.1,0-0.2c0,0,0,0,0,0
			c0,0,0,0,0,0c0-0.1,0-0.2,0-0.3c0-0.1,0-0.1,0-0.2c0,0,0,0,0,0c0,0,0,0,0,0c0-0.1,0-0.2,0-0.3c0-0.1,0-0.1,0-0.2c0,0,0,0,0-0.1
			c0,0,0,0,0,0c0-0.1,0-0.2,0-0.3c0-0.1,0-0.1,0-0.2c0,0,0-0.1,0-0.1C34.1,42.1,34.1,42,34.1,42z"/>
		<path class="st1" d="M31.2,43.4c0,0,0-0.1,0-0.1c0,0,0,0,0,0c0-0.1,0-0.2,0-0.4c0,0,0,0,0,0c0,0,0-0.1,0-0.1c0-0.1,0-0.2,0-0.2
			c0,0,0,0,0-0.1c0-0.1,0-0.1,0-0.2c0-0.1,0-0.1,0-0.1c0,0,0-0.1,0-0.1c0-0.1,0-0.1,0-0.2c0,0,0-0.1,0-0.1c0,0,0-0.1,0-0.1
			c0-0.1,0-0.1,0-0.2c0,0,0,0,0-0.1c0-0.1,0-0.1,0-0.2c0-0.1,0-0.1,0-0.2c0,0,0,0,0,0c0,0,0-0.1,0-0.1c0-0.1-0.1-0.2-0.1-0.3
			c0,0,0,0,0-0.1c0,0,0,0,0-0.1c0-0.2-0.1-0.3-0.2-0.5c0,0,0,0,0-0.1c0,0,0,0,0,0c-0.1-0.3-0.2-0.5-0.3-0.8c0,0,0,0,0,0
			c-0.1-0.3-0.2-0.5-0.3-0.8c0,0,0,0,0,0c0,0,0,0,0,0c-0.1-0.2-0.2-0.4-0.3-0.6c0,0,0,0,0,0c0,0,0,0,0,0c-0.1-0.2-0.2-0.3-0.3-0.5
			c0,0,0,0,0,0c0,0,0,0,0-0.1c-0.1-0.1-0.1-0.2-0.2-0.3c0,0,0,0,0-0.1c0,0,0,0,0,0c-0.1-0.1-0.1-0.2-0.2-0.3c0,0,0,0,0-0.1
			c0,0,0,0,0,0c-0.1-0.1-0.2-0.2-0.3-0.3c0,0,0,0,0,0c0,0,0-0.1-0.1-0.1c-0.1-0.1-0.1-0.1-0.2-0.2c0,0,0,0,0,0c0,0-0.1-0.1-0.1-0.1
			c0,0-0.1-0.1-0.1-0.1c0,0,0,0,0,0c0,0-0.1-0.1-0.1-0.1c0,0-0.1-0.1-0.1-0.1c0,0,0,0,0,0c0,0-0.1-0.1-0.1-0.1c0,0-0.1-0.1-0.1-0.1
			c0,0,0,0,0,0c0,0-0.1-0.1-0.1-0.1c0,0-0.1,0-0.1-0.1c0,0,0,0,0,0c-0.1-0.1-0.2-0.1-0.2-0.2c0,0,0,0,0,0c0,0,0,0,0,0
			c-0.1,0-0.1-0.1-0.2-0.1c0,0,0,0,0,0c0,0-0.1,0-0.1-0.1c0,0-0.1-0.1-0.1-0.1c0,0,0,0-0.1,0c0,0-0.1,0-0.1,0c0,0-0.1,0-0.1,0
			c0,0-0.1,0-0.1-0.1c0,0-0.1,0-0.1,0c0,0,0,0,0,0c-0.1,0-0.1,0-0.1-0.1c0,0,0,0-0.1,0c0,0,0,0,0,0c-0.1,0-0.2-0.1-0.2-0.1
			c0,0,0,0,0,0c0,0,0,0-0.1,0c-0.1,0-0.1,0-0.2-0.1c0,0,0,0-0.1,0c-0.1,0-0.1,0-0.2,0c0,0,0,0,0,0c0,0-0.1,0-0.1,0c0,0-0.1,0-0.1,0
			c0,0,0,0,0,0c-0.1,0-0.2,0-0.2,0c0,0,0,0,0,0c0,0,0,0,0,0c-0.1,0-0.2,0-0.3,0c0,0,0,0,0,0c0,0,0,0-0.1,0c-0.1,0-0.1,0-0.2,0
			c0,0,0,0,0,0c0,0,0,0,0,0c-0.1,0-0.2,0-0.3,0c0,0,0,0,0,0c-0.1,0-0.1,0-0.2,0c-0.3,0.1-0.7,0.2-1,0.3c0.1,0,0.1,0,0.1,0
			c3.3,0.9,6.2,5.6,6.4,10.4c0.1,2.8-0.6,5.1-1.9,6.4c0.3-0.1,0.6-0.2,1-0.3c0.1,0,0.2-0.1,0.3-0.1c0,0,0.1,0,0.1,0
			c0.1,0,0.2-0.1,0.2-0.1c0,0,0.1,0,0.1,0c0.1-0.1,0.2-0.1,0.3-0.2c0,0,0,0,0,0c0.1-0.1,0.2-0.2,0.3-0.2c0,0,0.1-0.1,0.1-0.1
			c0.1-0.1,0.1-0.1,0.2-0.2c0,0,0.1-0.1,0.1-0.1c0.1-0.1,0.2-0.2,0.3-0.3l0,0c0.1-0.1,0.2-0.3,0.3-0.4c0,0,0,0,0,0
			c0-0.1,0.1-0.2,0.1-0.2c0,0,0.1-0.1,0.1-0.2c0,0,0,0,0,0c0.1-0.1,0.1-0.2,0.2-0.4c0,0,0,0,0,0c0,0,0-0.1,0-0.1
			c0-0.1,0.1-0.1,0.1-0.2c0-0.1,0-0.1,0.1-0.2c0,0,0-0.1,0-0.1c0,0,0,0,0-0.1c0-0.1,0.1-0.2,0.1-0.3c0,0,0,0,0-0.1c0,0,0-0.1,0-0.1
			c0-0.1,0-0.1,0-0.2c0-0.1,0-0.2,0.1-0.3c0,0,0,0,0,0c0,0,0,0,0,0c0-0.1,0-0.2,0-0.3c0-0.1,0-0.2,0-0.3c0,0,0,0,0,0c0,0,0,0,0,0
			c0-0.1,0-0.2,0-0.3c0-0.1,0-0.2,0-0.2c0,0,0,0,0,0c0,0,0,0,0,0c0-0.1,0-0.2,0-0.3c0-0.1,0-0.1,0-0.2c0,0,0,0,0-0.1c0,0,0,0,0-0.1
			c0-0.1,0-0.2,0-0.3c0-0.1,0-0.2,0-0.2c0,0,0-0.1,0-0.1C31.2,43.5,31.2,43.4,31.2,43.4z"/>
		<path class="st1" d="M22.3,34.6c3.1,0.8,5.8,5.3,6,9.9c0.3,4.6-2,7.7-5.1,6.8c-3.1-0.8-5.8-5.3-6-9.9C17,36.8,19.2,33.7,22.3,34.6
			z"/>
		<path class="st0" d="M24.4,50.4c-0.3,0-0.6,0-0.9-0.1c-2.6-0.7-5-4.8-5.3-9c-0.2-3.3,1-5.7,2.9-5.9c0.3,0,0.6,0,0.9,0.1
			c2.6,0.7,5,4.8,5.3,9C27.5,47.8,26.3,50.3,24.4,50.4L24.4,50.4z"/>
		<path class="st0" d="M52.5,44.5c0.2,0.7,0.2,1.5,0.1,2.3c0,0.4-1.3,2.2-11.3,4.5c12.7-0.8,21.6-6.6,22.2-10.1
			c0.6-3.7-0.6-10.8-5.2-15.6C65.8,38.5,56,43.4,52.5,44.5z"/>
	</g>
	<circle class="st3" cx="39.8" cy="40.6" r="28.1"/>
</g>
<g>
	<g>
		<path class="st2" d="M105.3,70.9c-16.6,0-30.1-13.5-30.1-30.1c0-16.6,13.5-30.1,30.1-30.1c16.6,0,30.1,13.5,30.1,30.1
			C135.5,57.4,122,70.9,105.3,70.9L105.3,70.9z"/>
		<g>
			<defs>
				<circle id="SVGID_4_" cx="105.3" cy="40.8" r="28.1"/>
			</defs>
			<clipPath id="SVGID_5_">
				<use xlink:href="#SVGID_4_"  style="overflow:visible;"/>
			</clipPath>
			<circle class="st8" cx="105.3" cy="40.8" r="28.1"/>
			<g class="st9">
				<path class="st1" d="M91.1,55.7"/>
				<path class="st1" d="M91.1,55.7"/>
				<g>
					<circle class="st0" cx="91.1" cy="55.7" r="0.7"/>
					<path class="st0" d="M91.1,55.7"/>
				</g>
				<path class="st0" d="M94,54.7c0.1,0.3,0.2,0.7,0.2,1c0,1.7-1.4,3.1-3.1,3.1c-1.7,0-3.1-1.4-3.1-3.1c0-0.3,0-0.6,0.1-0.8l0.3-0.7
					h-4.6v-0.9h5l0.5-1.4h1.1c0,0.1-0.6,1.4-0.6,1.4L89,55.1c-0.1,0.2-0.1,0.4-0.1,0.6c0,1.2,1,2.2,2.2,2.2c1.2,0,2.2-1,2.2-2.2
					c0-0.3,0-0.5-0.1-0.7L92,51.9H93l0.5,1.4h5.4v0.9h-5.1L94,54.7z"/>
			</g>
		</g>
	</g>
	<g>
		<g>
			<path class="st10" d="M107.7,67"/>
		</g>
		<g>
			<path class="st10" d="M107.7,67"/>
		</g>
		<path class="st11" d="M120.6,46.6c-0.7-5.9-6.8-16.4-18.8-27.9c4.6,8.6-1.1,12.2-9.4,26.8c-2.8,5-3.7,12.5,2,18.5
			c3.9,4.1,12.5,8.3,20.5,0.9C121.2,59.1,121.4,52.8,120.6,46.6z"/>
		<path class="st12" d="M113.3,54c-0.1-0.5,0.3-5.4-6.6-17.4c-0.2,5.6-3.3,9.6-7.5,16.8c-1.4,2.5-1.9,6.3,1,9.2
			c2,2,6.2,4.1,10.2,0.4C113.6,60.2,113.7,57,113.3,54z"/>
	</g>
</g>
<g>
	<g>
		<path class="st2" d="M235.4,70.9c-16.6,0-30.1-13.5-30.1-30.1c0-16.6,13.5-30.1,30.1-30.1c16.6,0,30.1,13.5,30.1,30.1
			C265.5,57.4,252,70.9,235.4,70.9L235.4,70.9z"/>
		<g>
			<defs>
				<circle id="SVGID_6_" cx="235.4" cy="40.8" r="28.1"/>
			</defs>
			<clipPath id="SVGID_7_">
				<use xlink:href="#SVGID_6_"  style="overflow:visible;"/>
			</clipPath>
			<circle class="st13" cx="235.4" cy="40.8" r="28.1"/>
			<g class="st14">
				<path class="st1" d="M221.1,55.7"/>
				<path class="st1" d="M221.1,55.7"/>
				<g>
					<circle class="st0" cx="221.1" cy="55.7" r="0.7"/>
					<path class="st0" d="M221.1,55.7"/>
				</g>
				<path class="st0" d="M224.1,54.7c0.1,0.3,0.2,0.7,0.2,1c0,1.7-1.4,3.1-3.1,3.1c-1.7,0-3.1-1.4-3.1-3.1c0-0.3,0-0.6,0.1-0.8
					l0.3-0.7h-4.6v-0.9h5l0.5-1.4h1.1c0,0.1-0.6,1.4-0.6,1.4l-0.7,1.8c-0.1,0.2-0.1,0.4-0.1,0.6c0,1.2,1,2.2,2.2,2.2
					c1.2,0,2.2-1,2.2-2.2c0-0.3,0-0.5-0.1-0.7l-1.1-3.1h1.1l0.5,1.4h5.4v0.9h-5.1L224.1,54.7z"/>
			</g>
		</g>
	</g>
	<g>
		<path class="st1" d="M222.7,18.6c4.4,3.4,5,6.2,8.2,5.3c3.2-0.8,2.3-3,4.5-8.8l0,0.1c2.1,5.2,1.2,7.8,4.4,8.7
			c3.2,0.9,3.5-1.4,8.3-5.3l0,0c-0.8,5.5-2.8,7.4-0.5,9.7c2.3,2.3,3.7,0.5,9.9-0.4l0,0c-3.4,4.4-6.2,5-5.3,8.2
			c0.8,3.2,3,2.3,8.8,4.6v0c-5.2,2.1-7.8,1.2-8.7,4.4c-0.9,3.2,1.4,3.5,5.3,8.3l0,0c-5.5-0.8-7.4-2.8-9.7-0.5
			c-2.3,2.3-0.5,3.7,0.4,9.9l0,0c-4.4-3.4-5-6.2-8.2-5.3c-3.2,0.8-2.3,3-4.6,8.8h0c-2.1-5.2-1.2-7.8-4.4-8.7
			c-3.2-0.9-3.5,1.4-8.3,5.3l0,0c0.8-5.5,2.8-7.4,0.5-9.7c-2.3-2.3-3.7-0.5-9.9,0.4l0,0c3.4-4.4,6.2-5,5.3-8.2
			c-0.8-3.2-3-2.3-8.8-4.5l-0.1,0c5.2-2.1,7.8-1.2,8.7-4.4c0.9-3.2-1.4-3.5-5.3-8.3c5.5,0.8,7.4,2.8,9.7,0.5
			C225.4,26.2,223.7,24.8,222.7,18.6z"/>
		<g>
			<path class="st15" d="M220.6,40.7c0-8.2,6.6-14.8,14.8-14.8c8.2,0,14.8,6.6,14.8,14.8c0,7.4-7.5,14.8-14.8,14.8
				C227.2,55.5,220.6,48.9,220.6,40.7z"/>
			<path class="st16" d="M235.4,40.7"/>
		</g>
	</g>
</g>
<g>
	<g>
		<path class="st2" d="M430.5,70.9c-16.6,0-30.1-13.5-30.1-30.1c0-16.6,13.5-30.1,30.1-30.1c16.6,0,30.1,13.5,30.1,30.1
			C460.6,57.4,447.1,70.9,430.5,70.9L430.5,70.9z"/>
		<g>
			<defs>
				<circle id="SVGID_8_" cx="430.5" cy="40.8" r="28.1"/>
			</defs>
			<clipPath id="SVGID_9_">
				<use xlink:href="#SVGID_8_"  style="overflow:visible;"/>
			</clipPath>
			<circle class="st17" cx="430.5" cy="40.8" r="28.1"/>
			<g class="st18">
				<path class="st1" d="M416.3,55.7"/>
				<path class="st1" d="M416.3,55.7"/>
				<g>
					<circle class="st0" cx="416.3" cy="55.7" r="0.7"/>
					<path class="st0" d="M416.3,55.7"/>
				</g>
				<path class="st0" d="M419.2,54.7c0.1,0.3,0.2,0.7,0.2,1c0,1.7-1.4,3.1-3.1,3.1c-1.7,0-3.1-1.4-3.1-3.1c0-0.3,0-0.6,0.1-0.8
					l0.3-0.7h-4.6v-0.9h5l0.5-1.4h1.1c0,0.1-0.6,1.4-0.6,1.4l-0.7,1.8c-0.1,0.2-0.1,0.4-0.1,0.6c0,1.2,1,2.2,2.2,2.2
					c1.2,0,2.2-1,2.2-2.2c0-0.3,0-0.5-0.1-0.7l-1.1-3.1h1.1l0.5,1.4h5.4v0.9h-5.1L419.2,54.7z"/>
			</g>
		</g>
	</g>
	<g>
		<g>
			<path class="st16" d="M430.6,40.7"/>
		</g>
	</g>
	<g>
		<polygon class="st1" points="406.1,29.9 406.1,51.9 413.5,51.9 413.5,27.2 		"/>
		<polygon class="st1" points="421.8,33 421.8,51.9 416,51.9 416,35.1 420.3,33.6 420.3,29.5 436,23.8 455,39.3 455,51.9 
			425.8,51.9 425.8,33 		"/>
		<polygon class="st1" points="436,24.8 436,51.2 454.4,51.2 454.4,39.7 		"/>
		<polygon class="st19" points="438.2,50.1 453.1,50.1 453.1,48.4 438.2,47.2 		"/>
		<polygon class="st19" points="438.2,36.4 453.1,42.2 453.1,44 438.2,40.3 		"/>
		<polygon class="st19" points="438.2,29.6 438.2,34.4 453.1,41.2 453.1,40 		"/>
		<polygon class="st19" points="438.2,42.3 438.2,45.2 453.1,47.3 453.1,45.2 		"/>
	</g>
</g>
<g>
	<path class="st2" d="M365.2,70.9c-16.6,0-30.1-13.5-30.1-30.1c0-16.6,13.5-30.1,30.1-30.1c16.6,0,30.1,13.5,30.1,30.1
		C395.3,57.4,381.8,70.9,365.2,70.9L365.2,70.9z"/>
	<g>
		<defs>
			<circle id="SVGID_10_" cx="365.2" cy="40.8" r="28.1"/>
		</defs>
		<clipPath id="SVGID_11_">
			<use xlink:href="#SVGID_10_"  style="overflow:visible;"/>
		</clipPath>
		<circle class="st20" cx="365.2" cy="40.8" r="28.1"/>
		<g class="st21">
			<path class="st1" d="M350.9,55.7"/>
			<path class="st1" d="M350.9,55.7"/>
			<g>
				<circle class="st0" cx="350.9" cy="55.7" r="0.7"/>
				<path class="st0" d="M350.9,55.7"/>
			</g>
			<path class="st0" d="M353.9,54.7c0.1,0.3,0.2,0.7,0.2,1c0,1.7-1.4,3.1-3.1,3.1c-1.7,0-3.1-1.4-3.1-3.1c0-0.3,0-0.6,0.1-0.8
				l0.3-0.7h-4.6v-0.9h5l0.5-1.4h1.1c0,0.1-0.6,1.4-0.6,1.4l-0.7,1.8c-0.1,0.2-0.1,0.4-0.1,0.6c0,1.2,1,2.2,2.2,2.2s2.2-1,2.2-2.2
				c0-0.3,0-0.5-0.1-0.7l-1.1-3.1h1.1l0.5,1.4h5.4v0.9h-5.1L353.9,54.7z"/>
		</g>
	</g>
</g>
<g>
	<g>
		<path class="st16" d="M365.2,41.7"/>
	</g>
</g>
<g>
	<polyline class="st22" points="349.8,64.6 365.1,22.4 380.5,64.5 	"/>
	<line class="st22" x1="351.8" y1="59.2" x2="378.6" y2="59.2"/>
	<polygon class="st22" points="355.7,48.5 374.7,48.5 365.2,59.2 	"/>
	<polygon class="st22" points="359.6,37.5 370.7,37.5 365.2,48.5 	"/>
	<polygon class="st22" points="343.7,24.8 386.8,24.8 365.2,37.6 	"/>
	<g>
		<line class="st22" x1="344.7" y1="24.8" x2="344.7" y2="35.9"/>
		<g>
			<line class="st23" x1="343.1" y1="28.6" x2="346.3" y2="28.6"/>
		</g>
		<g>
			<line class="st23" x1="343.1" y1="30.5" x2="346.3" y2="30.5"/>
		</g>
		<g>
			<line class="st23" x1="343.1" y1="32.3" x2="346.3" y2="32.3"/>
		</g>
		<g>
			<line class="st23" x1="343.1" y1="34.2" x2="346.3" y2="34.2"/>
		</g>
	</g>
	<g>
		<line class="st22" x1="385.8" y1="24.8" x2="385.8" y2="35.9"/>
		<g>
			<line class="st23" x1="384.2" y1="28.6" x2="387.5" y2="28.6"/>
		</g>
		<g>
			<line class="st23" x1="384.2" y1="30.5" x2="387.5" y2="30.5"/>
		</g>
		<g>
			<line class="st23" x1="384.2" y1="32.3" x2="387.5" y2="32.3"/>
		</g>
		<g>
			<line class="st23" x1="384.2" y1="34.2" x2="387.5" y2="34.2"/>
		</g>
	</g>
</g>
<text transform="matrix(1 0 0 1 10 165.001)" class="st1 st24 st25 st26">OF GREATER PITTSBURGH</text>
</svg>
