<?xml version="1.0" encoding="utf-8"?>
<!-- Generator: Adobe Illustrator 21.1.0, SVG Export Plug-In . SVG Version: 6.00 Build 0)  -->
<svg version="1.1" id="Layer_1" xmlns="http://www.w3.org/2000/svg" xmlns:xlink="http://www.w3.org/1999/xlink" x="0px" y="0px"
	 viewBox="0 0 477 173" style="enable-background:new 0 0 477 173;" xml:space="preserve">
<style type="text/css">
	.Arched_x0020_Green{fill:url(#SVGID_1_);stroke:#FFFFFF;stroke-width:0.25;stroke-miterlimit:1;}
	.st0{fill:#1B75BC;}
	.st1{fill:none;stroke:#1B75BC;stroke-width:1.9209;}
	.st2{fill:none;}
	.st3{fill:#FFFFFF;}
	.st4{fill:none;stroke:#1B75BC;stroke-width:1.9113;}
	.st5{clip-path:url(#SVGID_3_);fill:#1B75BC;}
	.st6{clip-path:url(#SVGID_3_);fill:none;}
	.st7{clip-path:url(#SVGID_3_);fill:#FFFFFF;}
	.st8{clip-path:url(#SVGID_5_);fill:#1B75BC;}
	.st9{clip-path:url(#SVGID_5_);}
	.st10{fill:none;stroke:#000000;stroke-width:1.01;stroke-linecap:round;stroke-linejoin:round;stroke-miterlimit:10;}
	.st11{fill:#FFFFFF;stroke:#FFFFFF;stroke-width:1.01;}
	.st12{fill:#1B72BA;}
	.st13{clip-path:url(#SVGID_7_);fill:#1B75BC;}
	.st14{clip-path:url(#SVGID_7_);}
	.st15{fill:#FFFFFF;stroke:#1C74BB;stroke-width:2.02;stroke-miterlimit:10;}
	.st16{fill:#FFF200;stroke:#FFFFFF;stroke-width:2.02;stroke-miterlimit:10;}
	.st17{clip-path:url(#SVGID_9_);fill:#1B75BC;}
	.st18{clip-path:url(#SVGID_9_);}
	.st19{fill:#1D75BC;}
	.st20{clip-path:url(#SVGID_11_);fill:#1B75BC;}
	.st21{clip-path:url(#SVGID_11_);}
	.st22{fill:none;stroke:#FFFFFF;stroke-width:3.03;stroke-linecap:round;stroke-linejoin:round;}
	.st23{fill:none;stroke:#FFFFFF;stroke-width:2.02;stroke-linecap:round;stroke-linejoin:round;}
	.st24{font-family:'Gotham-Book';}
	.st25{font-size:24px;}
	.st26{letter-spacing:6;}
</style>
<linearGradient id="SVGID_1_" gradientUnits="userSpaceOnUse" x1="-147" y1="394" x2="-146.2929" y2="393.2929">
	<stop  offset="0" style="stop-color:#20AC4B"/>
	<stop  offset="0.9831" style="stop-color:#19361A"/>
</linearGradient>
<g>
	<path class="st0" d="M50,112.9H24.1c1,4.8,4.4,7.3,9.1,7.3c3.5,0,6.1-1.1,9-3.8l6,5.3c-3.5,4.3-8.5,6.9-15.2,6.9
		c-11.2,0-19.4-7.8-19.4-19.2v-0.1C13.6,98.7,21.2,90,32,90c12.4,0,18.1,9.6,18.1,20.2v0.1C50.2,111.3,50.1,112,50,112.9z M32,98.4
		c-4.4,0-7.2,3.1-8.1,7.9h15.9C39.3,101.6,36.5,98.4,32,98.4z"/>
	<path class="st0" d="M78.1,127.9v-20.8c0-5-2.4-7.6-6.4-7.6c-4,0-6.6,2.6-6.6,7.6v20.8H54.5V90.7h10.6v5.3c2.4-3.1,5.6-6,10.9-6
		c8,0,12.6,5.3,12.6,13.8v24.1H78.1z"/>
	<path class="st0" d="M128.9,112.9H103c1,4.8,4.4,7.3,9.1,7.3c3.5,0,6.1-1.1,9-3.8l6,5.3c-3.5,4.3-8.5,6.9-15.2,6.9
		c-11.2,0-19.4-7.8-19.4-19.2v-0.1c0-10.6,7.6-19.4,18.4-19.4c12.4,0,18.1,9.6,18.1,20.2v0.1C129,111.3,128.9,112,128.9,112.9z
		 M110.9,98.4c-4.4,0-7.2,3.1-8.1,7.9h15.9C118.1,101.6,115.3,98.4,110.9,98.4z"/>
	<path class="st0" d="M155.2,101c-7,0-11.3,4.2-11.3,13.1v13.7h-10.6V90.7h10.6v7.5c2.2-5.1,5.6-8.5,11.9-8.2v11H155.2z"/>
	<path class="st0" d="M174.9,139.1c-6,0-11.7-1.4-16.5-3.9l3.6-7.9c3.8,2.2,7.6,3.4,12.6,3.4c7.2,0,10.6-3.5,10.6-10.1v-1.8
		c-3.1,3.7-6.5,6-12.1,6c-8.7,0-16.5-6.3-16.5-17.4v-0.1c0-11.1,8-17.4,16.5-17.4c5.8,0,9.2,2.4,12,5.6v-4.9h10.6v28.8
		C195.6,133.5,188.7,139.1,174.9,139.1z M185.2,107.3c0-5.1-4-8.6-9.1-8.6c-5.1,0-9,3.5-9,8.6v0.1c0,5.1,3.9,8.6,9,8.6
		c5.1,0,9.1-3.5,9.1-8.6V107.3z"/>
	<path class="st0" d="M222.7,128.8c-2.8,7.6-5.9,10.4-12.2,10.4c-3.8,0-6.7-1-9.4-2.6l3.5-7.6c1.4,0.8,3.1,1.5,4.5,1.5
		c1.8,0,2.8-0.6,3.7-2.4l-14.6-37.3h11.2l8.5,25.3l8.1-25.3h11L222.7,128.8z"/>
	<path d="M271,127.9V122c-2.4,3.4-6.8,6.7-13.5,6.7c-6.6,0-13.7-3.7-13.7-11.1v-0.1c0-7.4,6.3-11.5,15.5-11.5
		c4.9,0,8.3,0.6,11.7,1.5v-1.5c0-7.2-4.4-10.8-11.7-10.8c-4.3,0-7.8,1.2-11.1,2.8l-1.2-3c3.9-1.8,7.7-3.1,12.6-3.1
		c9.1,0,14.8,4.7,14.8,13.9v22.1H271z M271.1,110.6c-3-0.8-6.9-1.6-12-1.6c-7.5,0-11.7,3.3-11.7,8.3v0.1c0,5.1,4.9,8.1,10.3,8.1
		c7.2,0,13.4-4.4,13.4-10.9V110.6z"/>
	<path d="M283.6,127.9V77.2h3.4v50.7H283.6z"/>
	<path d="M297.4,127.9V77.2h3.4v50.7H297.4z"/>
	<path d="M310.8,83.2v-4.7h4.2v4.7H310.8z M311.2,127.9V92.5h3.4v35.4H311.2z"/>
	<path d="M348.8,127.9V122c-2.4,3.4-6.8,6.7-13.5,6.7c-6.6,0-13.7-3.7-13.7-11.1v-0.1c0-7.4,6.3-11.5,15.5-11.5
		c4.9,0,8.3,0.6,11.7,1.5v-1.5c0-7.2-4.4-10.8-11.7-10.8c-4.3,0-7.8,1.2-11.1,2.8l-1.2-3c3.9-1.8,7.7-3.1,12.6-3.1
		c9.1,0,14.8,4.7,14.8,13.9v22.1H348.8z M348.9,110.6c-3-0.8-6.9-1.6-12-1.6c-7.5,0-11.7,3.3-11.7,8.3v0.1c0,5.1,4.9,8.1,10.3,8.1
		c7.2,0,13.4-4.4,13.4-10.9V110.6z"/>
	<path d="M387.8,127.9v-21c0-7.3-4.1-12.1-11.2-12.1c-6.9,0-12.3,5.3-12.3,12.6v20.5h-3.4V92.5h3.4v6.6c2.4-4.2,6.3-7.4,12.8-7.4
		c9,0,14.2,6.1,14.2,14.6v21.7H387.8z"/>
	<path d="M415.6,128.7c-10.2,0-18-8.5-18-18.4v-0.1c0-9.9,7.9-18.5,18-18.5c6.7,0,10.8,3.1,14.2,6.5l-2.4,2.5
		c-3.1-3.1-6.5-5.8-11.8-5.8c-8.1,0-14.3,6.7-14.3,15.2v0.1c0,8.5,6.5,15.3,14.6,15.3c5,0,8.9-2.6,11.9-5.9l2.4,2.1
		C426.4,125.8,422.1,128.7,415.6,128.7z"/>
	<path d="M450.2,125.5c5.5,0,9.2-2.4,12.1-5.6l2.4,2.1c-3.6,3.9-7.8,6.7-14.6,6.7c-9.3,0-17.4-7.4-17.4-18.5v-0.1
		c0-10.3,7.2-18.5,16.8-18.5c9.9,0,16.2,8.1,16.2,18.5v0.1c0,0.5,0,0.7-0.1,1.2h-29.4C436.9,120.4,443.2,125.5,450.2,125.5z
		 M462,108.5c-0.5-7.1-4.6-13.7-12.7-13.7c-7,0-12.4,5.9-13.1,13.7H462z"/>
</g>
<g>
	<path class="st1" d="M174.6,68.7c-16.6,0-30.1-13.5-30.1-30.1c0-16.6,13.5-30.1,30.1-30.1c16.6,0,30.1,13.5,30.1,30.1
		C204.7,55.1,191.2,68.7,174.6,68.7L174.6,68.7z"/>
	<circle class="st0" cx="174.6" cy="38.5" r="28.1"/>
	<circle class="st2" cx="174.6" cy="38.5" r="28.1"/>
	<g>
		<g>
			<path class="st3" d="M174.6,9.8c-5.2,0-9.4,12.7-9.4,28.4c0,15.7,4.2,28.4,9.4,28.4c5.2,0,9.4-12.7,9.4-28.4
				C184,22.6,179.8,9.8,174.6,9.8z M174.6,66.3c-4.7,0-8.4-12.6-8.4-28.1c0-15.5,3.8-28.1,8.4-28.1c4.6,0,8.4,12.6,8.4,28.1
				C183,53.8,179.2,66.3,174.6,66.3z"/>
			<path class="st3" d="M146,38.3c0,5.1,12.8,9.3,28.6,9.3c15.8,0,28.6-4.2,28.6-9.3c0-5.1-12.8-9.3-28.6-9.3
				C158.8,29,146,33.1,146,38.3z M202.8,38.3c0,4.6-12.6,8.4-28.2,8.4c-15.6,0-28.2-3.7-28.2-8.4c0-4.6,12.6-8.4,28.2-8.4
				C190.2,29.9,202.8,33.7,202.8,38.3z"/>
			<path class="st3" d="M154.3,18.2c-3.7,3.6,2.4,15.6,13.6,26.7C179.1,56,191.2,62,194.8,58.4c3.7-3.6-2.4-15.6-13.6-26.7
				C170,20.6,158,14.5,154.3,18.2z M194.5,58.1c-3.3,3.3-14.9-3-25.9-13.9c-11-11-17.3-22.5-14-25.8c3.3-3.3,14.9,3,25.9,13.9
				C191.6,43.3,197.8,54.9,194.5,58.1z"/>
			<path class="st3" d="M154.3,58.4C158,62,170,56,181.2,44.9c11.2-11.1,17.3-23.1,13.6-26.7c-3.7-3.6-15.7,2.4-26.9,13.5
				C156.8,42.8,150.7,54.7,154.3,58.4z M194.5,18.4c3.3,3.3-3,14.8-14,25.8c-11,11-22.6,17.2-25.9,13.9c-3.3-3.3,3-14.8,14-25.8
				C179.7,21.4,191.3,15.2,194.5,18.4z"/>
			<ellipse class="st3" cx="174.4" cy="38.4" rx="4" ry="4"/>
		</g>
		<path class="st0" d="M174.7,41.4c-1.9,0-3.4-1.5-3.4-3.4c0-0.9,0.3-1.6,0.9-2.2c-0.7,0.6-1.2,1.5-1.2,2.5c0,1.9,1.5,3.4,3.4,3.4
			c1,0,1.9-0.5,2.5-1.2C176.3,41.1,175.6,41.4,174.7,41.4z"/>
		<ellipse class="st3" cx="186.9" cy="18.4" rx="2.2" ry="2.2"/>
		<path class="st0" d="M187.1,20.1c-1,0-1.9-0.8-1.9-1.8c0-0.5,0.2-0.9,0.5-1.2c-0.4,0.3-0.6,0.8-0.6,1.4c0,1,0.8,1.8,1.9,1.8
			c0.6,0,1-0.2,1.4-0.6C188,19.9,187.5,20.1,187.1,20.1z"/>
		<g>
			<ellipse class="st3" cx="154.3" cy="25.1" rx="2.2" ry="2.2"/>
			<path class="st0" d="M154.5,26.8c-1,0-1.9-0.8-1.9-1.8c0-0.5,0.2-0.9,0.5-1.2c-0.4,0.3-0.6,0.8-0.6,1.4c0,1,0.8,1.8,1.9,1.8
				c0.6,0,1-0.2,1.4-0.6C155.4,26.6,155,26.8,154.5,26.8z"/>
		</g>
		<g>
			<ellipse class="st3" cx="169.2" cy="60.5" rx="2.2" ry="2.2"/>
			<path class="st0" d="M169.3,62.1c-1,0-1.9-0.8-1.9-1.8c0-0.5,0.2-0.9,0.5-1.2c-0.4,0.3-0.6,0.8-0.6,1.4c0,1,0.8,1.8,1.9,1.8
				c0.6,0,1-0.2,1.4-0.6C170.2,61.9,169.8,62.1,169.3,62.1z"/>
		</g>
	</g>
</g>
<g>
	<path class="st4" d="M304.2,68.6c-16.5,0-30-13.4-30-30c0-16.5,13.4-30,30-30c16.5,0,30,13.4,30,30
		C334.2,55.2,320.7,68.6,304.2,68.6L304.2,68.6z"/>
	<g>
		<defs>
			<circle id="SVGID_2_" cx="304.1" cy="38.7" r="28"/>
		</defs>
		<clipPath id="SVGID_3_">
			<use xlink:href="#SVGID_2_"  style="overflow:visible;"/>
		</clipPath>
		<circle class="st5" cx="304.2" cy="38.7" r="28"/>
		<circle class="st6" cx="304.2" cy="38.7" r="28"/>
		<path class="st7" d="M286.1,93.1h7.3V61.7h-7.3V93.1z M295.3,34.7c-1.1-1.1-1.9-2.9-1.9-5c0-2,0.7-3.8,1.9-5
			c-10.2,0.4-18,2.4-18,5C277.3,32.2,285.1,34.3,295.3,34.7z M295.9,25.4c-1,1-1.6,2.5-1.6,4.3c0,1.4,0.4,2.7,1.1,3.7l1.2-1.7
			c-0.3-0.6-0.4-1.4-0.4-2.1c0-0.8,0.2-1.6,0.5-2.3L295.9,25.4z M301.5,26.8c-0.6-1.2-1.6-2.1-2.7-2.3l0.6,1.6
			C300.1,26.2,300.8,26.5,301.5,26.8z M298.1,35C298.1,35,298.2,35,298.1,35c1.5,0,2.7-1,3.4-2.5c-0.7,0.3-1.5,0.6-2.2,0.8L298.1,35
			z M292.6,37.2v-1.4c-1.7-0.1-3.5-0.3-5.2-0.5v9.4L292.6,37.2z M287.3,56.6v3.9h5.2v-9.1C291,53.1,289.3,54.8,287.3,56.6z
			 M325.4,31.4c-6.1-2.8-10-3.9-16.7-4.8l-2.5,3.7l-2.9-0.5c0-0.1,0-0.1,0-0.1c0-1.2-1.8-2.2-4.6-3L286.3-8.3
			c-0.6,5.2-0.6,8.2,0,13.4c0.8,7.3,1.9,11.4,4.9,18.1l4.8,0.3l1.5,3.9c-0.3,0.7-0.6,1.4-0.6,2.3c0,0.8,0.2,1.5,0.5,2.2l-23.5,33.2
			c5-2.7,7.7-4.6,12-8.4c6-5.3,9-8.8,13.1-15.7l-2.8-4.5l2.6-3.9c1.7-0.4,3-1,3.8-1.6l33.5,6.8C332.2,34.9,329.8,33.4,325.4,31.4z"
			/>
		<path class="st7" d="M320.3,43c-0.4-0.9-1.1-1.5-1.9-1.7l0.4,1.1C319.3,42.6,319.8,42.8,320.3,43z M316.4,42
			c-0.7,0.7-1.1,1.8-1.1,3c0,1,0.3,1.9,0.8,2.6l0.8-1.2c-0.2-0.5-0.3-1-0.3-1.5c0-0.6,0.1-1.1,0.3-1.6L316.4,42z M312.5,26.4
			l-2.9-8.2c-0.3,3-0.4,5-0.2,7.6C310.5,25.9,311.5,26.2,312.5,26.4z M315.9,48.5c-0.8-0.8-1.3-2.1-1.3-3.5c0-1.4,0.5-2.7,1.3-3.5
			c-7.2,0.3-12.7,1.7-12.7,3.5C303.2,46.8,308.7,48.3,315.9,48.5z M317.9,48.8C318,48.8,318,48.8,317.9,48.8c1,0,1.9-0.7,2.4-1.8
			c-0.5,0.2-1,0.4-1.6,0.6L317.9,48.8z M337.3,46.2c-4.3-2-7-2.8-11.8-3.4l-1.8,2.6l-2-0.4c0,0,0-0.1,0-0.1c0-0.8-1.3-1.6-3.3-2.1
			l-3.1-8.8l-4.8-1c0.6,2.4,1.3,4.5,2.6,7.3l3.4,0.2l1.1,2.8c-0.2,0.5-0.4,1-0.4,1.6c0,0.6,0.1,1.1,0.4,1.5L300.8,70
			c3.5-1.9,5.4-3.3,8.5-5.9c4.2-3.7,6.4-6.3,9.3-11.1l-2-3.2l1.8-2.7c1.2-0.3,2.1-0.7,2.7-1.2l23.7,4.8
			C342,48.7,340.4,47.7,337.3,46.2z M310.3,64.1v2.8h3.7v-6.4C312.9,61.6,311.7,62.8,310.3,64.1z M314,50.3v-1
			c-1.2-0.1-2.5-0.2-3.7-0.4v6.6L314,50.3z M309.5,87.7h5.1v-20h-5.1V87.7z"/>
	</g>
</g>
<g>
	<path class="st1" d="M43.8,68.6c-16.6,0-30.1-13.5-30.1-30.1c0-16.6,13.5-30.1,30.1-30.1c16.6,0,30.1,13.5,30.1,30.1
		C73.9,55.1,60.4,68.6,43.8,68.6L43.8,68.6z"/>
	<circle class="st0" cx="43.8" cy="38.5" r="28.1"/>
	<circle class="st2" cx="43.8" cy="38.5" r="28.1"/>
	<g>
		<path class="st3" d="M28.5,31.1L28.5,31.1c0.1,0,0.2,0,0.3,0c0,0,0.1,0,0.1,0l0,0c0,0,0.1,0,0.1,0l0,0c0.1,0,0.2,0,0.2,0.1l0.1,0
			c0.1,0,0.1,0,0.2,0.1l0.1,0c0.1,0,0.2,0.1,0.3,0.1l0,0l0,0l0.1,0l0,0c0,0,0.1,0,0.1,0.1l0,0l0.1,0l0,0l0,0c0,0,0.1,0,0.1,0
			c0,0,0,0,0.1,0l0,0l0,0l0.1,0c0,0,0.1,0,0.1,0c0,0,0,0,0.1,0l0,0l0,0l0.1,0l0,0c0,0,0,0,0,0l0.4-0.1l0.3-0.1c0.1,0,0.1,0,0.2,0
			c0,0,0.1,0,0.1,0l0,0c0.1,0,0.1,0,0.1,0c0,0,0,0,0.1,0c0,0,0.1,0,0.1,0c0.1,0,0.1,0,0.2,0c0,0,0.1,0,0.1,0c0.1,0,0.1,0,0.2,0
			c0.1,0,0.1,0,0.2,0c0,0,0,0,0.1,0c0.1,0,0.2,0,0.3,0c0.1,0,0.1,0,0.2,0l0.1,0c0,0,0.1,0,0.2,0.1l0,0l0,0l0,0
			c0.1,0,0.1,0.1,0.2,0.1l0.1,0l0,0c0,0,0.1,0,0.1,0.1l0,0l0,0l0.1,0c0,0,0.1,0,0.1,0l0.1,0l0.1,0.1l0,0l0.1,0l0.1,0l0,0l0,0l0,0
			l0.1,0l0,0c0.1,0,0.1,0.1,0.2,0.1c0.1,0.1,0.1,0.1,0.2,0.2l0.1,0l0.1,0c0,0,0.1,0.1,0.1,0.1l0,0l0,0c0,0,0,0,0.1,0.1l0,0l0,0
			c0,0,0.1,0,0.1,0.1l0,0l0,0l0.1,0.1l0,0l0,0c0,0,0,0,0.1,0.1l0,0l0,0c0,0.1,0.1,0.1,0.1,0.1l0,0l0.1,0.1l0,0l0,0
			c0,0.1,0.1,0.1,0.1,0.2c0,0,0.1,0.1,0.1,0.1c0.1,0.1,0.2,0.2,0.2,0.3l0,0.1c0.1,0.1,0.1,0.2,0.2,0.3l0,0l0,0
			c0.1,0.1,0.1,0.2,0.2,0.3c0,0,0,0.1,0,0.1l0,0l0,0c0.1,0.1,0.1,0.2,0.2,0.4c0,0,0,0,0,0l0,0c0.1,0.2,0.2,0.3,0.3,0.5l0,0l0,0
			c0.1,0.2,0.2,0.4,0.3,0.6l0,0l0,0c0.1,0.2,0.2,0.4,0.2,0.6l0,0.1c0,0.1,0.1,0.3,0.1,0.4l0,0.1l0,0.1c0,0.1,0,0.1,0,0.2l0,0.1
			l0,0.1l0,0l0,0l0,0.1l0,0l0,0.1l0,0.1l0,0.1l0,0.1l0,0.1l0,0.1l0,0c0,0,0,0.1,0,0.1l0,0l0,0l0,0.1l0,0l0,0.1l0,0.1l0,0.1l0,0.1
			l0,0.1l0,0.1c0,0.1,0,0.2,0,0.3l0,0.1l0,0l0,0.1l0,0.1l0,0l0,0l0,0.2c0,0.1,0,0.2,0,0.3c0,0,0,0,0,0.1v0c0,0,0,0,0,0l0,0.1V41
			c0,0.1,0,0.2,0,0.3v0l0,0l0,0c0,0.1,0,0.1,0,0.2c0,0.1,0,0.2,0,0.3l0,0l0,0c0,0.1,0,0.2,0,0.2c0,0.1,0,0.1,0,0.2l0,0l0,0
			c0,0.1,0,0.2-0.1,0.3c0,0,0,0.1,0,0.1l0,0l0,0.1c0,0,0,0.1,0,0.1c0,0.1,0,0.2-0.1,0.3l0,0.1l0,0.1l0,0c0,0,0,0.1,0,0.1
			c0,0.1,0,0.1-0.1,0.2l0,0l0,0.1l0,0c0,0.1-0.1,0.2-0.1,0.3c0,0,0,0.1-0.1,0.1l0,0l0,0c0,0.1-0.1,0.1-0.1,0.2
			c-0.1,0.2-0.2,0.3-0.3,0.4c-0.1,0.1-0.2,0.2-0.2,0.3l-0.1,0.1l0,0c-0.1,0.1-0.1,0.1-0.2,0.2l0,0L37,45.5c-0.1,0.1-0.2,0.2-0.3,0.2
			c-0.1,0.1-0.2,0.1-0.3,0.2c0,0-0.1,0-0.1,0.1c-0.1,0-0.1,0.1-0.2,0.1c0,0-0.1,0-0.1,0c-0.1,0-0.2,0.1-0.3,0.1l-0.3,0.1l-0.4,0.1
			c0,0,0,0,0,0.1c0,0.1,0,0.1-0.1,0.1l0,0l0,0.1c0,0.1-0.1,0.1-0.1,0.2l0,0l0,0c-0.1,0.2-0.2,0.3-0.3,0.5c-0.1,0.1-0.2,0.2-0.3,0.4
			c0,0,0,0-0.1,0.1l0,0C34,48,34,48.1,33.9,48.1l0,0l-0.1,0.1c-0.1,0.1-0.2,0.2-0.3,0.3c-0.1,0.1-0.2,0.2-0.4,0.2c0,0-0.1,0-0.1,0.1
			c-0.1,0-0.2,0.1-0.3,0.1c0,0,0,0,0,0c12.3,4.6,37.6-0.9,37.1-11.4C69.5,27.6,64,19.4,55,17C45.8,14.2,33.8,18.1,28.5,31.1
			C28.5,31.1,28.5,31.1,28.5,31.1L28.5,31.1z M70.3,35.7c0.1,0.6,0.1,1.2,0.1,1.8c0.4,7.8-12.1,12.8-23.9,13.6
			c-5.9,0.4-11.1-0.3-14.8-1.9l-0.5,0.1l-1.9,0.5h0L29,50l0,0c-0.2,0-0.3,0.1-0.5,0.1c-0.5,0-0.9,0-1.4-0.2
			c-2.2-0.6-4.2-2.8-5.4-5.7c-3.4,4.6,0.1,8.4,2.2,10.1c8.8,6.4,16,1.8,23.9,0.6C66.8,52,77.6,41.8,70.3,35.7z"/>
		<path class="st3" d="M38.1,40C38.1,40,38.1,39.9,38.1,40c0-0.1,0-0.1,0-0.1c0-0.1,0-0.2,0-0.3c0,0,0,0,0,0c0,0,0-0.1,0-0.1
			c0-0.1,0-0.1,0-0.2c0,0,0,0,0,0c0,0,0-0.1,0-0.1c0,0,0-0.1,0-0.1c0,0,0-0.1,0-0.1c0,0,0-0.1,0-0.1c0,0,0-0.1,0-0.1
			c0,0,0-0.1,0-0.1c0,0,0-0.1,0-0.1c0,0,0,0,0-0.1c0,0,0-0.1,0-0.1c0,0,0-0.1,0-0.1c0,0,0,0,0,0c0,0,0-0.1,0-0.1
			c0-0.1,0-0.1-0.1-0.2c0,0,0,0,0-0.1c0,0,0,0,0-0.1c0-0.1-0.1-0.2-0.1-0.4c0,0,0,0,0,0c0,0,0,0,0,0c-0.1-0.2-0.1-0.4-0.2-0.6
			c0,0,0,0,0,0c-0.1-0.2-0.2-0.4-0.3-0.6c0,0,0,0,0,0c0,0,0,0,0,0c-0.1-0.2-0.2-0.3-0.2-0.5c0,0,0,0,0,0c0,0,0,0,0,0
			c-0.1-0.1-0.1-0.2-0.2-0.3c0,0,0,0,0,0c0,0,0,0,0-0.1c-0.1-0.1-0.1-0.2-0.2-0.2c0,0,0,0,0-0.1c0,0,0,0,0,0
			c-0.1-0.1-0.1-0.1-0.2-0.2c0,0,0,0,0-0.1c0,0,0,0,0,0c-0.1-0.1-0.1-0.2-0.2-0.3c0,0,0,0,0,0c0,0,0,0-0.1-0.1c0,0-0.1-0.1-0.1-0.1
			c0,0,0,0,0,0c0,0,0-0.1-0.1-0.1c0,0-0.1-0.1-0.1-0.1c0,0,0,0,0,0c0,0-0.1,0-0.1-0.1c0,0-0.1-0.1-0.1-0.1c0,0,0,0,0,0
			c0,0-0.1-0.1-0.1-0.1c0,0-0.1,0-0.1-0.1c0,0,0,0,0,0c0,0-0.1-0.1-0.1-0.1c0,0,0,0,0,0c0,0,0,0,0,0c-0.1-0.1-0.1-0.1-0.2-0.1
			c0,0,0,0,0,0l0,0c-0.1,0-0.1-0.1-0.2-0.1c0,0,0,0,0,0c0,0,0,0-0.1,0c0,0-0.1,0-0.1-0.1c0,0,0,0,0,0c0,0,0,0-0.1,0c0,0,0,0-0.1,0
			c0,0-0.1,0-0.1,0c0,0,0,0-0.1,0c0,0,0,0,0,0c0,0-0.1,0-0.1-0.1c0,0,0,0,0,0c0,0,0,0,0,0c-0.1,0-0.1,0-0.2-0.1c0,0,0,0,0,0
			c0,0,0,0,0,0c0,0-0.1,0-0.1,0c0,0,0,0,0,0c-0.1,0-0.1,0-0.2,0c-0.1,0-0.1,0-0.2,0c0,0,0,0,0,0c0,0,0,0,0,0c-0.1,0-0.1,0-0.2,0
			c-0.1,0-0.1,0-0.2,0c0,0,0,0,0,0c0,0,0,0,0,0c-0.1,0-0.2,0-0.2,0c0,0,0,0-0.1,0c0,0-0.1,0-0.1,0c0,0-0.1,0-0.1,0
			c-0.1,0-0.1,0-0.2,0l-0.3,0.1h0l0,0c0,0,0.1,0.1,0.1,0.1c0,0,0,0,0,0c0,0,0.1,0.1,0.1,0.1l0,0c0,0,0.1,0.1,0.1,0.1l0,0
			c0,0,0.1,0.1,0.1,0.1l0,0l0,0l0.1,0.1l0,0l0,0l0.1,0.1l0,0l0,0l0.1,0.1l0,0.1l0,0c0,0.1,0.1,0.1,0.1,0.2l0,0l0,0l0,0.1
			c0.1,0.1,0.2,0.2,0.3,0.4l0,0.1c0.1,0.1,0.2,0.2,0.2,0.3l0,0l0,0l0,0l0,0c0.1,0.1,0.1,0.2,0.2,0.3l0,0.1l0,0l0,0
			c0.1,0.1,0.2,0.3,0.3,0.5l0,0l0,0c0.1,0.2,0.2,0.4,0.3,0.6c0.1,0.3,0.2,0.5,0.4,0.8l0,0l0,0c0.1,0.3,0.2,0.5,0.3,0.8l0,0.1
			c0.1,0.2,0.1,0.3,0.2,0.5l0,0l0,0c0,0,0,0,0,0.1c0,0.1,0.1,0.2,0.1,0.3l0,0l0,0.1l0,0l0,0c0,0.1,0,0.1,0,0.2l0,0l0,0.1l0,0.1
			l0,0.1l0,0.1l0,0l0,0.1l0,0l0,0.1l0,0.2l0,0l0,0.1l0,0.1l0,0.1l0,0.2l0,0.1c0,0.1,0,0.1,0,0.2l0,0l0,0.1l0,0.1c0,0.1,0,0.3,0,0.4
			l0,0.1l0,0l0,0c0,0.1,0,0.1,0,0.2l0,0.1c0,0.1,0,0.2,0,0.2c0,0.1,0,0.2,0,0.4v0l0,0l0,0l0,0.1c0,0.1,0,0.1,0,0.2
			c0,0.1,0,0.2,0,0.4l0,0l0,0l0,0.1c0,0.1,0,0.2,0,0.3c0,0.1,0,0.2,0,0.3l0,0.1c0,0.1,0,0.2,0,0.3c0,0.1,0,0.2,0,0.3c0,0,0,0,0,0.1
			c0,0.1,0,0.2-0.1,0.3l0,0.1l0,0.1l0,0l0,0.1l0,0.1c0,0.1-0.1,0.2-0.1,0.3l0,0.1l0,0.1l0,0.1c0,0,0,0.1,0,0.1c0,0,0,0,0,0.1
			l0.3-0.1c0.1,0,0.2-0.1,0.3-0.1c0,0,0.1,0,0.1,0c0.1,0,0.1-0.1,0.2-0.1c0,0,0.1,0,0.1,0c0.1-0.1,0.2-0.1,0.2-0.2c0,0,0,0,0,0
			c0.1-0.1,0.2-0.1,0.2-0.2c0,0,0,0,0.1-0.1c0.1-0.1,0.1-0.1,0.2-0.2c0,0,0,0,0.1-0.1c0.1-0.1,0.1-0.2,0.2-0.2c0,0,0,0,0,0
			c0.1-0.1,0.1-0.2,0.2-0.3c0,0,0,0,0,0c0-0.1,0.1-0.1,0.1-0.2c0,0,0-0.1,0.1-0.1c0,0,0,0,0,0c0-0.1,0.1-0.2,0.1-0.3c0,0,0,0,0,0
			c0,0,0,0,0-0.1c0-0.1,0-0.1,0.1-0.2c0,0,0-0.1,0-0.1c0,0,0-0.1,0-0.1c0,0,0,0,0-0.1c0-0.1,0-0.2,0.1-0.3c0,0,0,0,0,0
			c0,0,0-0.1,0-0.1c0,0,0-0.1,0-0.1c0-0.1,0-0.2,0-0.3l0,0c0,0,0,0,0,0c0-0.1,0-0.1,0-0.2c0-0.1,0-0.1,0-0.2c0,0,0,0,0,0
			c0,0,0,0,0,0c0-0.1,0-0.2,0-0.3c0-0.1,0-0.1,0-0.2c0,0,0,0,0,0c0,0,0,0,0,0c0-0.1,0-0.2,0-0.3c0-0.1,0-0.1,0-0.2c0,0,0,0,0-0.1
			c0,0,0,0,0,0c0-0.1,0-0.2,0-0.3c0-0.1,0-0.1,0-0.2c0,0,0-0.1,0-0.1C38.1,40.1,38.1,40,38.1,40z"/>
		<path class="st3" d="M35.2,41.4c0,0,0-0.1,0-0.1c0,0,0,0,0,0c0-0.1,0-0.2,0-0.4c0,0,0,0,0,0c0,0,0-0.1,0-0.1c0-0.1,0-0.2,0-0.2
			c0,0,0,0,0-0.1c0-0.1,0-0.1,0-0.2c0-0.1,0-0.1,0-0.1c0,0,0-0.1,0-0.1c0-0.1,0-0.1,0-0.2c0,0,0-0.1,0-0.1c0,0,0-0.1,0-0.1
			c0-0.1,0-0.1,0-0.2c0,0,0,0,0-0.1c0-0.1,0-0.1,0-0.2c0-0.1,0-0.1,0-0.2c0,0,0,0,0,0c0,0,0-0.1,0-0.1c0-0.1-0.1-0.2-0.1-0.3
			c0,0,0,0,0-0.1c0,0,0,0,0-0.1c0-0.2-0.1-0.3-0.2-0.5c0,0,0,0,0-0.1c0,0,0,0,0,0c-0.1-0.3-0.2-0.5-0.3-0.8c0,0,0,0,0,0
			c-0.1-0.3-0.2-0.5-0.3-0.8c0,0,0,0,0,0c0,0,0,0,0,0c-0.1-0.2-0.2-0.4-0.3-0.6c0,0,0,0,0,0c0,0,0,0,0,0c-0.1-0.2-0.2-0.3-0.3-0.5
			c0,0,0,0,0,0c0,0,0,0,0-0.1c-0.1-0.1-0.1-0.2-0.2-0.3c0,0,0,0,0-0.1c0,0,0,0,0,0c-0.1-0.1-0.1-0.2-0.2-0.3c0,0,0,0,0-0.1
			c0,0,0,0,0,0c-0.1-0.1-0.2-0.2-0.3-0.3c0,0,0,0,0,0c0,0,0-0.1-0.1-0.1c-0.1-0.1-0.1-0.1-0.2-0.2c0,0,0,0,0,0c0,0-0.1-0.1-0.1-0.1
			c0,0-0.1-0.1-0.1-0.1c0,0,0,0,0,0c0,0-0.1-0.1-0.1-0.1c0,0-0.1-0.1-0.1-0.1c0,0,0,0,0,0c0,0-0.1-0.1-0.1-0.1c0,0-0.1-0.1-0.1-0.1
			c0,0,0,0,0,0c0,0-0.1-0.1-0.1-0.1c0,0-0.1,0-0.1-0.1c0,0,0,0,0,0c-0.1-0.1-0.2-0.1-0.2-0.2c0,0,0,0,0,0c0,0,0,0,0,0
			c-0.1,0-0.1-0.1-0.2-0.1c0,0,0,0,0,0c0,0-0.1,0-0.1-0.1c0,0-0.1-0.1-0.1-0.1c0,0,0,0-0.1,0c0,0-0.1,0-0.1,0c0,0-0.1,0-0.1,0
			c0,0-0.1,0-0.1-0.1c0,0-0.1,0-0.1,0c0,0,0,0,0,0c-0.1,0-0.1,0-0.1-0.1c0,0,0,0-0.1,0c0,0,0,0,0,0c-0.1,0-0.2-0.1-0.2-0.1
			c0,0,0,0,0,0c0,0,0,0-0.1,0c-0.1,0-0.1,0-0.2-0.1c0,0,0,0-0.1,0c-0.1,0-0.1,0-0.2,0c0,0,0,0,0,0c0,0-0.1,0-0.1,0c0,0-0.1,0-0.1,0
			c0,0,0,0,0,0c-0.1,0-0.2,0-0.2,0c0,0,0,0,0,0c0,0,0,0,0,0c-0.1,0-0.2,0-0.3,0c0,0,0,0,0,0c0,0,0,0-0.1,0c-0.1,0-0.1,0-0.2,0
			c0,0,0,0,0,0c0,0,0,0,0,0c-0.1,0-0.2,0-0.3,0c0,0,0,0,0,0c-0.1,0-0.1,0-0.2,0c-0.3,0.1-0.7,0.2-1,0.3c0.1,0,0.1,0,0.1,0
			c3.3,0.9,6.2,5.6,6.4,10.4c0.1,2.8-0.6,5.1-1.9,6.4c0.3-0.1,0.6-0.2,1-0.3c0.1,0,0.2-0.1,0.3-0.1c0,0,0.1,0,0.1,0
			c0.1,0,0.2-0.1,0.2-0.1c0,0,0.1,0,0.1,0c0.1-0.1,0.2-0.1,0.3-0.2c0,0,0,0,0,0c0.1-0.1,0.2-0.2,0.3-0.2c0,0,0.1-0.1,0.1-0.1
			c0.1-0.1,0.1-0.1,0.2-0.2c0,0,0.1-0.1,0.1-0.1c0.1-0.1,0.2-0.2,0.3-0.3l0,0c0.1-0.1,0.2-0.3,0.3-0.4c0,0,0,0,0,0
			c0-0.1,0.1-0.2,0.1-0.2c0,0,0.1-0.1,0.1-0.2c0,0,0,0,0,0c0.1-0.1,0.1-0.2,0.2-0.4c0,0,0,0,0,0c0,0,0-0.1,0-0.1
			c0-0.1,0.1-0.1,0.1-0.2c0-0.1,0-0.1,0.1-0.2c0,0,0-0.1,0-0.1c0,0,0,0,0-0.1c0-0.1,0.1-0.2,0.1-0.3c0,0,0,0,0-0.1c0,0,0-0.1,0-0.1
			c0-0.1,0-0.1,0-0.2c0-0.1,0-0.2,0.1-0.3c0,0,0,0,0,0c0,0,0,0,0,0c0-0.1,0-0.2,0-0.3c0-0.1,0-0.2,0-0.3c0,0,0,0,0,0c0,0,0,0,0,0
			c0-0.1,0-0.2,0-0.3c0-0.1,0-0.2,0-0.2c0,0,0,0,0,0c0,0,0,0,0,0c0-0.1,0-0.2,0-0.3c0-0.1,0-0.1,0-0.2c0,0,0,0,0-0.1c0,0,0,0,0-0.1
			c0-0.1,0-0.2,0-0.3c0-0.1,0-0.2,0-0.2c0,0,0-0.1,0-0.1C35.2,41.5,35.2,41.4,35.2,41.4z"/>
		<path class="st3" d="M26.3,32.6c3.1,0.8,5.8,5.3,6,9.9c0.3,4.6-2,7.7-5.1,6.8c-3.1-0.8-5.8-5.3-6-9.9C21,34.8,23.2,31.7,26.3,32.6
			z"/>
		<path class="st0" d="M28.4,48.4c-0.3,0-0.6,0-0.9-0.1c-2.6-0.7-5-4.8-5.3-9c-0.2-3.3,1-5.7,2.9-5.9c0.3,0,0.6,0,0.9,0.1
			c2.6,0.7,5,4.8,5.3,9C31.5,45.8,30.3,48.3,28.4,48.4L28.4,48.4z"/>
		<path class="st0" d="M56.5,42.5c0.2,0.7,0.2,1.5,0.1,2.3c0,0.4-1.3,2.2-11.3,4.5c12.7-0.8,21.6-6.6,22.2-10.1
			c0.6-3.7-0.6-10.8-5.2-15.6C69.8,36.5,60,41.4,56.5,42.5z"/>
	</g>
	<circle class="st2" cx="43.8" cy="38.6" r="28.1"/>
</g>
<g>
	<g>
		<path class="st1" d="M109.3,68.9c-16.6,0-30.1-13.5-30.1-30.1c0-16.6,13.5-30.1,30.1-30.1c16.6,0,30.1,13.5,30.1,30.1
			C139.5,55.4,126,68.9,109.3,68.9L109.3,68.9z"/>
		<g>
			<defs>
				<circle id="SVGID_4_" cx="109.3" cy="38.8" r="28.1"/>
			</defs>
			<clipPath id="SVGID_5_">
				<use xlink:href="#SVGID_4_"  style="overflow:visible;"/>
			</clipPath>
			<circle class="st8" cx="109.3" cy="38.8" r="28.1"/>
			<g class="st9">
				<path class="st3" d="M95.1,53.7"/>
				<path class="st3" d="M95.1,53.7"/>
				<g>
					<circle class="st0" cx="95.1" cy="53.7" r="0.7"/>
					<path class="st0" d="M95.1,53.7"/>
				</g>
				<path class="st0" d="M98,52.7c0.1,0.3,0.2,0.7,0.2,1c0,1.7-1.4,3.1-3.1,3.1c-1.7,0-3.1-1.4-3.1-3.1c0-0.3,0-0.6,0.1-0.8l0.3-0.7
					h-4.6v-0.9h5l0.5-1.4h1.1c0,0.1-0.6,1.4-0.6,1.4L93,53.1c-0.1,0.2-0.1,0.4-0.1,0.6c0,1.2,1,2.2,2.2,2.2c1.2,0,2.2-1,2.2-2.2
					c0-0.3,0-0.5-0.1-0.7L96,49.9H97l0.5,1.4h5.4v0.9h-5.1L98,52.7z"/>
			</g>
		</g>
	</g>
	<g>
		<g>
			<path class="st10" d="M111.7,65"/>
		</g>
		<g>
			<path class="st10" d="M111.7,65"/>
		</g>
		<path class="st11" d="M124.6,44.6c-0.7-5.9-6.8-16.4-18.8-27.9c4.6,8.6-1.1,12.2-9.4,26.8c-2.8,5-3.7,12.5,2,18.5
			c3.9,4.1,12.5,8.3,20.5,0.9C125.2,57.1,125.4,50.8,124.6,44.6z"/>
		<path class="st12" d="M117.3,52c-0.1-0.5,0.3-5.4-6.6-17.4c-0.2,5.6-3.3,9.6-7.5,16.8c-1.4,2.5-1.9,6.3,1,9.2
			c2,2,6.2,4.1,10.2,0.4C117.6,58.2,117.7,55,117.3,52z"/>
	</g>
</g>
<g>
	<g>
		<path class="st1" d="M239.4,68.9c-16.6,0-30.1-13.5-30.1-30.1c0-16.6,13.5-30.1,30.1-30.1c16.6,0,30.1,13.5,30.1,30.1
			C269.5,55.4,256,68.9,239.4,68.9L239.4,68.9z"/>
		<g>
			<defs>
				<circle id="SVGID_6_" cx="239.4" cy="38.8" r="28.1"/>
			</defs>
			<clipPath id="SVGID_7_">
				<use xlink:href="#SVGID_6_"  style="overflow:visible;"/>
			</clipPath>
			<circle class="st13" cx="239.4" cy="38.8" r="28.1"/>
			<g class="st14">
				<path class="st3" d="M225.1,53.7"/>
				<path class="st3" d="M225.1,53.7"/>
				<g>
					<circle class="st0" cx="225.1" cy="53.7" r="0.7"/>
					<path class="st0" d="M225.1,53.7"/>
				</g>
				<path class="st0" d="M228.1,52.7c0.1,0.3,0.2,0.7,0.2,1c0,1.7-1.4,3.1-3.1,3.1c-1.7,0-3.1-1.4-3.1-3.1c0-0.3,0-0.6,0.1-0.8
					l0.3-0.7h-4.6v-0.9h5l0.5-1.4h1.1c0,0.1-0.6,1.4-0.6,1.4l-0.7,1.8c-0.1,0.2-0.1,0.4-0.1,0.6c0,1.2,1,2.2,2.2,2.2
					c1.2,0,2.2-1,2.2-2.2c0-0.3,0-0.5-0.1-0.7l-1.1-3.1h1.1l0.5,1.4h5.4v0.9h-5.1L228.1,52.7z"/>
			</g>
		</g>
	</g>
	<g>
		<path class="st3" d="M226.7,16.6c4.4,3.4,5,6.2,8.2,5.3c3.2-0.8,2.3-3,4.5-8.8l0,0.1c2.1,5.2,1.2,7.8,4.4,8.7
			c3.2,0.9,3.5-1.4,8.3-5.3l0,0c-0.8,5.5-2.8,7.4-0.5,9.7c2.3,2.3,3.7,0.5,9.9-0.4l0,0c-3.4,4.4-6.2,5-5.3,8.2
			c0.8,3.2,3,2.3,8.8,4.6v0c-5.2,2.1-7.8,1.2-8.7,4.4c-0.9,3.2,1.4,3.5,5.3,8.3l0,0c-5.5-0.8-7.4-2.8-9.7-0.5
			c-2.3,2.3-0.5,3.7,0.4,9.9l0,0c-4.4-3.4-5-6.2-8.2-5.3c-3.2,0.8-2.3,3-4.6,8.8h0c-2.1-5.2-1.2-7.8-4.4-8.7
			c-3.2-0.9-3.5,1.4-8.3,5.3l0,0c0.8-5.5,2.8-7.4,0.5-9.7c-2.3-2.3-3.7-0.5-9.9,0.4l0,0c3.4-4.4,6.2-5,5.3-8.2
			c-0.8-3.2-3-2.3-8.8-4.5l-0.1,0c5.2-2.1,7.8-1.2,8.7-4.4c0.9-3.2-1.4-3.5-5.3-8.3c5.5,0.8,7.4,2.8,9.7,0.5
			C229.4,24.2,227.7,22.8,226.7,16.6z"/>
		<g>
			<path class="st15" d="M224.6,38.7c0-8.2,6.6-14.8,14.8-14.8c8.2,0,14.8,6.6,14.8,14.8c0,7.4-7.5,14.8-14.8,14.8
				C231.2,53.5,224.6,46.9,224.6,38.7z"/>
			<path class="st16" d="M239.4,38.7"/>
		</g>
	</g>
</g>
<g>
	<g>
		<path class="st1" d="M434.5,68.9c-16.6,0-30.1-13.5-30.1-30.1c0-16.6,13.5-30.1,30.1-30.1c16.6,0,30.1,13.5,30.1,30.1
			C464.6,55.4,451.1,68.9,434.5,68.9L434.5,68.9z"/>
		<g>
			<defs>
				<circle id="SVGID_8_" cx="434.5" cy="38.8" r="28.1"/>
			</defs>
			<clipPath id="SVGID_9_">
				<use xlink:href="#SVGID_8_"  style="overflow:visible;"/>
			</clipPath>
			<circle class="st17" cx="434.5" cy="38.8" r="28.1"/>
			<g class="st18">
				<path class="st3" d="M420.3,53.7"/>
				<path class="st3" d="M420.3,53.7"/>
				<g>
					<circle class="st0" cx="420.3" cy="53.7" r="0.7"/>
					<path class="st0" d="M420.3,53.7"/>
				</g>
				<path class="st0" d="M423.2,52.7c0.1,0.3,0.2,0.7,0.2,1c0,1.7-1.4,3.1-3.1,3.1c-1.7,0-3.1-1.4-3.1-3.1c0-0.3,0-0.6,0.1-0.8
					l0.3-0.7h-4.6v-0.9h5l0.5-1.4h1.1c0,0.1-0.6,1.4-0.6,1.4l-0.7,1.8c-0.1,0.2-0.1,0.4-0.1,0.6c0,1.2,1,2.2,2.2,2.2
					c1.2,0,2.2-1,2.2-2.2c0-0.3,0-0.5-0.1-0.7l-1.1-3.1h1.1l0.5,1.4h5.4v0.9h-5.1L423.2,52.7z"/>
			</g>
		</g>
	</g>
	<g>
		<g>
			<path class="st16" d="M434.6,38.7"/>
		</g>
	</g>
	<g>
		<polygon class="st3" points="410.1,27.9 410.1,49.9 417.5,49.9 417.5,25.2 		"/>
		<polygon class="st3" points="425.8,31 425.8,49.9 420,49.9 420,33.1 424.3,31.6 424.3,27.5 440,21.8 459,37.3 459,49.9 
			429.8,49.9 429.8,31 		"/>
		<polygon class="st3" points="440,22.8 440,49.2 458.4,49.2 458.4,37.7 		"/>
		<polygon class="st19" points="442.2,48.1 457.1,48.1 457.1,46.4 442.2,45.2 		"/>
		<polygon class="st19" points="442.2,34.4 457.1,40.2 457.1,42 442.2,38.3 		"/>
		<polygon class="st19" points="442.2,27.6 442.2,32.4 457.1,39.2 457.1,38 		"/>
		<polygon class="st19" points="442.2,40.3 442.2,43.2 457.1,45.3 457.1,43.2 		"/>
	</g>
</g>
<g>
	<path class="st1" d="M369.2,68.9c-16.6,0-30.1-13.5-30.1-30.1c0-16.6,13.5-30.1,30.1-30.1c16.6,0,30.1,13.5,30.1,30.1
		C399.3,55.4,385.8,68.9,369.2,68.9L369.2,68.9z"/>
	<g>
		<defs>
			<circle id="SVGID_10_" cx="369.2" cy="38.8" r="28.1"/>
		</defs>
		<clipPath id="SVGID_11_">
			<use xlink:href="#SVGID_10_"  style="overflow:visible;"/>
		</clipPath>
		<circle class="st20" cx="369.2" cy="38.8" r="28.1"/>
		<g class="st21">
			<path class="st3" d="M354.9,53.7"/>
			<path class="st3" d="M354.9,53.7"/>
			<g>
				<circle class="st0" cx="354.9" cy="53.7" r="0.7"/>
				<path class="st0" d="M354.9,53.7"/>
			</g>
			<path class="st0" d="M357.9,52.7c0.1,0.3,0.2,0.7,0.2,1c0,1.7-1.4,3.1-3.1,3.1c-1.7,0-3.1-1.4-3.1-3.1c0-0.3,0-0.6,0.1-0.8
				l0.3-0.7h-4.6v-0.9h5l0.5-1.4h1.1c0,0.1-0.6,1.4-0.6,1.4l-0.7,1.8c-0.1,0.2-0.1,0.4-0.1,0.6c0,1.2,1,2.2,2.2,2.2s2.2-1,2.2-2.2
				c0-0.3,0-0.5-0.1-0.7l-1.1-3.1h1.1l0.5,1.4h5.4v0.9h-5.1L357.9,52.7z"/>
		</g>
	</g>
</g>
<g>
	<g>
		<path class="st16" d="M369.2,39.7"/>
	</g>
</g>
<g>
	<polyline class="st22" points="353.8,62.6 369.1,20.4 384.5,62.5 	"/>
	<line class="st22" x1="355.8" y1="57.2" x2="382.6" y2="57.2"/>
	<polygon class="st22" points="359.7,46.5 378.7,46.5 369.2,57.2 	"/>
	<polygon class="st22" points="363.6,35.5 374.7,35.5 369.2,46.5 	"/>
	<polygon class="st22" points="347.7,22.8 390.8,22.8 369.2,35.6 	"/>
	<g>
		<line class="st22" x1="348.7" y1="22.8" x2="348.7" y2="33.9"/>
		<g>
			<line class="st23" x1="347.1" y1="26.6" x2="350.3" y2="26.6"/>
		</g>
		<g>
			<line class="st23" x1="347.1" y1="28.5" x2="350.3" y2="28.5"/>
		</g>
		<g>
			<line class="st23" x1="347.1" y1="30.3" x2="350.3" y2="30.3"/>
		</g>
		<g>
			<line class="st23" x1="347.1" y1="32.2" x2="350.3" y2="32.2"/>
		</g>
	</g>
	<g>
		<line class="st22" x1="389.8" y1="22.8" x2="389.8" y2="33.9"/>
		<g>
			<line class="st23" x1="388.2" y1="26.6" x2="391.5" y2="26.6"/>
		</g>
		<g>
			<line class="st23" x1="388.2" y1="28.5" x2="391.5" y2="28.5"/>
		</g>
		<g>
			<line class="st23" x1="388.2" y1="30.3" x2="391.5" y2="30.3"/>
		</g>
		<g>
			<line class="st23" x1="388.2" y1="32.2" x2="391.5" y2="32.2"/>
		</g>
	</g>
</g>
<text transform="matrix(1 0 0 1 14 163.001)" class="st24 st25 st26">OF GREATER PITTSBURGH</text>
</svg>
